{
  "source": "C:\\Users\\Peter\\Desktop\\stuff\\MIUN\\quantitative_research\\video_compression\\videos\\HEVC_CLASS_B\\BasketballDrive_1920x1080_50.y4m",
  "output": "C:\\Users\\Peter\\Desktop\\stuff\\MIUN\\quantitative_research\\video_compression\\compressed_videos\\HEVC_CLASS_B\\av1\\8\\BasketballDrive_1920x1080_50_av1.mkv",
  "codec": "av1",
  "ok": "Input #0, yuv4mpegpipe, from 'C:\\Users\\Peter\\Desktop\\stuff\\MIUN\\quantitative_research\\video_compression\\videos\\HEVC_CLASS_B\\BasketballDrive_1920x1080_50.y4m':\n  Duration: 00:00:10.00, start: 0.000000, bitrate: 1244162 kb/s\n  Stream #0:0: Video: rawvideo (I420 / 0x30323449), yuv420p(progressive), 1920x1080, 50 fps, 50 tbr, 50 tbn\n[out#0/matroska @ 000002a878109c40] Codec AVOption b:a (set bitrate (in bits/s)) has not been used for any stream. The most likely reason is either wrong type (e.g. a video option with no video streams) or that it is a private option of some decoder which was not actually used for any stream.\nStream mapping:\n  Stream #0:0 -> #0:0 (rawvideo (native) -> av1 (libsvtav1))\nPress [q] to stop, [?] for help\nSvt[info]: -------------------------------------------\nSvt[info]: SVT [version]:\tSVT-AV1 Encoder Lib v3.1.0-19-g6ecfe8ec\nSvt[info]: SVT [build]  :\tGCC 15.2.0\t 64 bit\nSvt[info]: LIB Build date: Aug 17 2025 11:37:13\nSvt[info]: -------------------------------------------\n[libsvtav1 @ 000002a87810c100] Specified chroma sample location center is unsupported on the AV1 bit stream level. Usage of a container that allows passing this information - such as Matroska - is recommended.\nSvt[info]: Level of Parallelism: 5\nSvt[info]: Number of PPCS 93\nSvt[info]: [asm level on system : up to avx2]\nSvt[info]: [asm level selected : up to avx2]\nSvt[info]: -------------------------------------------\nSvt[info]: SVT [config]: main profile\ttier (auto)\tlevel (auto)\nSvt[info]: SVT [config]: width / height / fps numerator / fps denominator \t\t: 1920 / 1080 / 50 / 1\nSvt[info]: SVT [config]: bit-depth / color format \t\t\t\t\t: 8 / YUV420\nSvt[info]: SVT [config]: preset / tune / pred struct \t\t\t\t\t: 4 / PSNR / random access\nSvt[info]: SVT [config]: gop size / mini-gop size / key-frame type \t\t\t: 321 / 16 / key frame\nSvt[info]: SVT [config]: BRC mode / target bitrate (kbps)\t\t\t\t: VBR / 8000 \nSvt[info]: SVT [config]: AQ mode / Variance Boost \t\t\t\t\t: 2 / 0\nSvt[info]: SVT [config]: sharpness / luminance-based QP bias \t\t\t\t: 0 / 0\nSvt[info]: SVT [config]: QP scale compress strength \t\t\t\t\t: 0\nSvt[info]: -------------------------------------------\nOutput #0, matroska, to 'C:\\Users\\Peter\\Desktop\\stuff\\MIUN\\quantitative_research\\video_compression\\compressed_videos\\HEVC_CLASS_B\\av1\\8\\BasketballDrive_1920x1080_50_av1.mkv':\n  Metadata:\n    encoder         : Lavf62.3.100\n  Stream #0:0: Video: av1 (AV01 / 0x31305641), yuv420p(tv, progressive), 1920x1080, q=2-31, 8000 kb/s, 50 fps, 1k tbn\n    Metadata:\n      encoder         : Lavc62.11.100 libsvtav1\n    Side data:\n      cpb: bitrate max/min/avg: 0/0/8000000 buffer size: 8000000 vbv_delay: N/A\nframe=    0 fps=0.0 q=0.0 size=       0KiB time=N/A bitrate=N/A speed=N/A elapsed=0:00:00.57    \nframe=    0 fps=0.0 q=0.0 size=       0KiB time=N/A bitrate=N/A speed=N/A elapsed=0:00:01.55    \nframe=    0 fps=0.0 q=0.0 size=       0KiB time=N/A bitrate=N/A speed=N/A elapsed=0:00:02.09    \nframe=    0 fps=0.0 q=0.0 size=       0KiB time=N/A bitrate=N/A speed=N/A elapsed=0:00:02.66    \nframe=    0 fps=0.0 q=0.0 size=       0KiB time=N/A bitrate=N/A speed=N/A elapsed=0:00:03.18    \nframe=    0 fps=0.0 q=0.0 size=       0KiB time=N/A bitrate=N/A speed=N/A elapsed=0:00:03.70    \nframe=    0 fps=0.0 q=0.0 size=       0KiB time=N/A bitrate=N/A speed=N/A elapsed=0:00:04.24    \nframe=    0 fps=0.0 q=0.0 size=       0KiB time=N/A bitrate=N/A speed=N/A elapsed=0:00:04.78    \nframe=    0 fps=0.0 q=0.0 size=       0KiB time=N/A bitrate=N/A speed=N/A elapsed=0:00:05.34    \nframe=    0 fps=0.0 q=0.0 size=       0KiB time=N/A bitrate=N/A speed=N/A elapsed=0:00:05.92    \nframe=    0 fps=0.0 q=0.0 size=       0KiB time=N/A bitrate=N/A speed=N/A elapsed=0:00:06.57    \nframe=    0 fps=0.0 q=0.0 size=       0KiB time=N/A bitrate=N/A speed=N/A elapsed=0:00:07.98    \nframe=    0 fps=0.0 q=0.0 size=       0KiB time=N/A bitrate=N/A speed=N/A elapsed=0:00:09.25    \nframe=    0 fps=0.0 q=0.0 size=       0KiB time=N/A bitrate=N/A speed=N/A elapsed=0:00:10.10    \nframe=    0 fps=0.0 q=0.0 size=       0KiB time=N/A bitrate=N/A speed=N/A elapsed=0:00:10.83    \nframe=    0 fps=0.0 q=0.0 size=       0KiB time=N/A bitrate=N/A speed=N/A elapsed=0:00:11.53    \nframe=    0 fps=0.0 q=0.0 size=       0KiB time=N/A bitrate=N/A speed=N/A elapsed=0:00:12.28    \nframe=    1 fps=0.1 q=12.0 size=       1KiB time=00:00:00.00 bitrate=N/A speed=   0x elapsed=0:00:13.06    \nframe=    1 fps=0.1 q=12.0 size=       1KiB time=00:00:00.00 bitrate=N/A speed=   0x elapsed=0:00:13.82    \nframe=    1 fps=0.1 q=12.0 size=       1KiB time=00:00:00.00 bitrate=N/A speed=   0x elapsed=0:00:14.59    \nframe=    1 fps=0.1 q=12.0 size=       1KiB time=00:00:00.00 bitrate=N/A speed=   0x elapsed=0:00:15.35    \nframe=    1 fps=0.1 q=12.0 size=       1KiB time=00:00:00.00 bitrate=N/A speed=   0x elapsed=0:00:16.17    \nframe=    1 fps=0.1 q=12.0 size=       1KiB time=00:00:00.00 bitrate=N/A speed=   0x elapsed=0:00:17.00    \nframe=    2 fps=0.1 q=35.0 size=       1KiB time=00:00:00.02 bitrate= 224.8kbits/s speed=0.00112x elapsed=0:00:17.79    \nframe=    3 fps=0.2 q=31.0 size=       1KiB time=00:00:00.04 bitrate= 112.4kbits/s speed=0.00215x elapsed=0:00:18.60    \nframe=    3 fps=0.2 q=31.0 size=       1KiB time=00:00:00.04 bitrate= 112.4kbits/s speed=0.00205x elapsed=0:00:19.49    \nframe=    4 fps=0.2 q=35.0 size=       1KiB time=00:00:00.06 bitrate=  74.9kbits/s speed=0.00295x elapsed=0:00:20.36    \nframe=    5 fps=0.2 q=29.0 size=       1KiB time=00:00:00.08 bitrate=  56.2kbits/s speed=0.00377x elapsed=0:00:21.19    \nframe=    6 fps=0.3 q=31.0 size=       1KiB time=00:00:00.10 bitrate=  45.0kbits/s speed=0.00453x elapsed=0:00:22.07    \nframe=    6 fps=0.3 q=31.0 size=       1KiB time=00:00:00.10 bitrate=  45.0kbits/s speed=0.00432x elapsed=0:00:23.14    \nframe=    7 fps=0.3 q=29.0 size=       1KiB time=00:00:00.12 bitrate=  37.5kbits/s speed=0.00501x elapsed=0:00:23.95    \nframe=    7 fps=0.3 q=29.0 size=       1KiB time=00:00:00.12 bitrate=  37.5kbits/s speed=0.0049x elapsed=0:00:24.47    \nframe=    9 fps=0.4 q=25.0 size=       1KiB time=00:00:00.14 bitrate=  32.1kbits/s speed=0.00559x elapsed=0:00:25.03    \nframe=    9 fps=0.4 q=25.0 size=       1KiB time=00:00:00.16 bitrate=  28.1kbits/s speed=0.00624x elapsed=0:00:25.65    \nframe=   10 fps=0.4 q=29.0 size=       1KiB time=00:00:00.18 bitrate=  25.0kbits/s speed=0.00687x elapsed=0:00:26.18    \nframe=   10 fps=0.4 q=29.0 size=       1KiB time=00:00:00.18 bitrate=  25.0kbits/s speed=0.00673x elapsed=0:00:26.74    \nframe=   11 fps=0.4 q=30.0 size=       1KiB time=00:00:00.20 bitrate=  22.5kbits/s speed=0.00733x elapsed=0:00:27.27    \nframe=   11 fps=0.4 q=30.0 size=       1KiB time=00:00:00.20 bitrate=  22.5kbits/s speed=0.00719x elapsed=0:00:27.80    \nframe=   13 fps=0.5 q=27.0 size=       1KiB time=00:00:00.24 bitrate=  18.7kbits/s speed=0.00847x elapsed=0:00:28.33    \nframe=   14 fps=0.5 q=29.0 size=       1KiB time=00:00:00.26 bitrate=  17.3kbits/s speed=0.009x elapsed=0:00:28.88    \nframe=   15 fps=0.5 q=30.0 size=       1KiB time=00:00:00.28 bitrate=  16.1kbits/s speed=0.0095x elapsed=0:00:29.47    \nframe=   16 fps=0.5 q=25.0 size=       1KiB time=00:00:00.30 bitrate=  15.0kbits/s speed=0.01x elapsed=0:00:29.99    \nframe=   17 fps=0.6 q=14.0 size=       1KiB time=00:00:00.32 bitrate=  14.1kbits/s speed=0.0105x elapsed=0:00:30.51    \nframe=   18 fps=0.6 q=28.0 size=       1KiB time=00:00:00.34 bitrate=  13.2kbits/s speed=0.0109x elapsed=0:00:31.09    \nframe=   19 fps=0.6 q=31.0 size=       1KiB time=00:00:00.36 bitrate=  12.5kbits/s speed=0.0114x elapsed=0:00:31.63    \nframe=   19 fps=0.6 q=31.0 size=       1KiB time=00:00:00.36 bitrate=  12.5kbits/s speed=0.0112x elapsed=0:00:32.21    \nframe=   20 fps=0.6 q=28.0 size=       1KiB time=00:00:00.38 bitrate=  11.8kbits/s speed=0.0116x elapsed=0:00:32.74    \nframe=   20 fps=0.6 q=28.0 size=       1KiB time=00:00:00.38 bitrate=  11.8kbits/s speed=0.0114x elapsed=0:00:33.29    \nframe=   21 fps=0.6 q=29.0 size=       1KiB time=00:00:00.40 bitrate=  11.2kbits/s speed=0.0118x elapsed=0:00:33.79    \nframe=   22 fps=0.6 q=27.0 size=       1KiB time=00:00:00.42 bitrate=  10.7kbits/s speed=0.0122x elapsed=0:00:34.38    \nframe=   22 fps=0.6 q=27.0 size=       1KiB time=00:00:00.42 bitrate=  10.7kbits/s speed=0.012x elapsed=0:00:34.96    \nframe=   23 fps=0.6 q=30.0 size=       1KiB time=00:00:00.44 bitrate=  10.2kbits/s speed=0.0124x elapsed=0:00:35.52    \nframe=   23 fps=0.6 q=30.0 size=       1KiB time=00:00:00.44 bitrate=  10.2kbits/s speed=0.0122x elapsed=0:00:36.05    \nframe=   23 fps=0.6 q=30.0 size=       1KiB time=00:00:00.44 bitrate=  10.2kbits/s speed=0.012x elapsed=0:00:36.57    \nframe=   25 fps=0.7 q=25.0 size=       1KiB time=00:00:00.48 bitrate=   9.4kbits/s speed=0.0129x elapsed=0:00:37.13    \nframe=   25 fps=0.7 q=25.0 size=       1KiB time=00:00:00.48 bitrate=   9.4kbits/s speed=0.0127x elapsed=0:00:37.71    \nframe=   26 fps=0.7 q=25.0 size=       1KiB time=00:00:00.50 bitrate=   9.0kbits/s speed=0.0131x elapsed=0:00:38.25    \nframe=   27 fps=0.7 q=29.0 size=       1KiB time=00:00:00.52 bitrate=   8.6kbits/s speed=0.0134x elapsed=0:00:38.81    \nframe=   27 fps=0.7 q=29.0 size=       1KiB time=00:00:00.52 bitrate=   8.6kbits/s speed=0.0132x elapsed=0:00:39.40    \nframe=   27 fps=0.7 q=29.0 size=       1KiB time=00:00:00.52 bitrate=   8.6kbits/s speed=0.013x elapsed=0:00:39.97    \nframe=   28 fps=0.7 q=24.0 size=       1KiB time=00:00:00.54 bitrate=   8.3kbits/s speed=0.0133x elapsed=0:00:40.51    \nframe=   29 fps=0.7 q=28.0 size=       1KiB time=00:00:00.56 bitrate=   8.0kbits/s speed=0.0136x elapsed=0:00:41.06    \nframe=   31 fps=0.7 q=30.0 size=       1KiB time=00:00:00.60 bitrate=   7.5kbits/s speed=0.0144x elapsed=0:00:41.58    \nframe=   32 fps=0.8 q=27.0 size=       1KiB time=00:00:00.62 bitrate=   7.3kbits/s speed=0.0147x elapsed=0:00:42.13    \nframe=   33 fps=0.8 q=16.0 size=       1KiB time=00:00:00.64 bitrate=   7.0kbits/s speed=0.015x elapsed=0:00:42.65    \nframe=   33 fps=0.8 q=16.0 size=       1KiB time=00:00:00.64 bitrate=   7.0kbits/s speed=0.0148x elapsed=0:00:43.18    \nframe=   34 fps=0.8 q=25.0 size=       1KiB time=00:00:00.66 bitrate=   6.8kbits/s speed=0.0151x elapsed=0:00:43.77    \nframe=   34 fps=0.8 q=25.0 size=       1KiB time=00:00:00.66 bitrate=   6.8kbits/s speed=0.0149x elapsed=0:00:44.34    \nframe=   35 fps=0.8 q=29.0 size=       1KiB time=00:00:00.68 bitrate=   6.6kbits/s speed=0.0151x elapsed=0:00:44.88    \nframe=   35 fps=0.8 q=29.0 size=       1KiB time=00:00:00.68 bitrate=   6.6kbits/s speed=0.015x elapsed=0:00:45.44    \nframe=   36 fps=0.8 q=26.0 size=       1KiB time=00:00:00.70 bitrate=   6.4kbits/s speed=0.0152x elapsed=0:00:46.01    \nframe=   36 fps=0.8 q=26.0 size=       1KiB time=00:00:00.70 bitrate=   6.4kbits/s speed=0.015x elapsed=0:00:46.57    \nframe=   37 fps=0.8 q=29.0 size=       1KiB time=00:00:00.72 bitrate=   6.2kbits/s speed=0.0153x elapsed=0:00:47.11    \nframe=   37 fps=0.8 q=29.0 size=       1KiB time=00:00:00.72 bitrate=   6.2kbits/s speed=0.0151x elapsed=0:00:47.66    \nframe=   38 fps=0.8 q=27.0 size=       1KiB time=00:00:00.74 bitrate=   6.1kbits/s speed=0.0153x elapsed=0:00:48.21    \nframe=   38 fps=0.8 q=27.0 size=       1KiB time=00:00:00.74 bitrate=   6.1kbits/s speed=0.0152x elapsed=0:00:48.79    \nframe=   38 fps=0.8 q=27.0 size=       1KiB time=00:00:00.74 bitrate=   6.1kbits/s speed=0.015x elapsed=0:00:49.32    \nframe=   39 fps=0.8 q=30.0 size=       1KiB time=00:00:00.76 bitrate=   5.9kbits/s speed=0.0152x elapsed=0:00:49.89    \nframe=   39 fps=0.8 q=30.0 size=       1KiB time=00:00:00.76 bitrate=   5.9kbits/s speed=0.0151x elapsed=0:00:50.44    \nframe=   39 fps=0.8 q=30.0 size=       1KiB time=00:00:00.76 bitrate=   5.9kbits/s speed=0.0149x elapsed=0:00:51.00    \nframe=   40 fps=0.8 q=27.0 size=       1KiB time=00:00:00.78 bitrate=   5.8kbits/s speed=0.0151x elapsed=0:00:51.61    \nframe=   41 fps=0.8 q=21.0 size=       1KiB time=00:00:00.80 bitrate=   5.6kbits/s speed=0.0153x elapsed=0:00:52.15    \nframe=   42 fps=0.8 q=27.0 size=       1KiB time=00:00:00.82 bitrate=   5.5kbits/s speed=0.0156x elapsed=0:00:52.68    \nframe=   43 fps=0.8 q=31.0 size=       1KiB time=00:00:00.84 bitrate=   5.4kbits/s speed=0.0158x elapsed=0:00:53.25    \nframe=   43 fps=0.8 q=31.0 size=       1KiB time=00:00:00.84 bitrate=   5.4kbits/s speed=0.0156x elapsed=0:00:53.77    \nframe=   44 fps=0.8 q=27.0 size=       1KiB time=00:00:00.86 bitrate=   5.2kbits/s speed=0.0158x elapsed=0:00:54.32    \nframe=   46 fps=0.8 q=28.0 size=       1KiB time=00:00:00.90 bitrate=   5.0kbits/s speed=0.0164x elapsed=0:00:54.87    \nframe=   48 fps=0.9 q=28.0 size=       1KiB time=00:00:00.94 bitrate=   4.8kbits/s speed=0.017x elapsed=0:00:55.40    \nframe=   48 fps=0.9 q=28.0 size=       1KiB time=00:00:00.94 bitrate=   4.8kbits/s speed=0.0168x elapsed=0:00:55.93    \nframe=   49 fps=0.9 q=15.0 size=       1KiB time=00:00:00.96 bitrate=   4.7kbits/s speed=0.017x elapsed=0:00:56.44    \nframe=   50 fps=0.9 q=28.0 size=       1KiB time=00:00:00.98 bitrate=   4.6kbits/s speed=0.0172x elapsed=0:00:56.96    \nframe=   50 fps=0.9 q=28.0 size=       1KiB time=00:00:00.98 bitrate=   4.6kbits/s speed=0.017x elapsed=0:00:57.50    \nframe=   50 fps=0.9 q=28.0 size=       1KiB time=00:00:00.98 bitrate=   4.6kbits/s speed=0.0169x elapsed=0:00:58.01    \nframe=   51 fps=0.9 q=31.0 size=       1KiB time=00:00:01.00 bitrate=   4.5kbits/s speed=0.0171x elapsed=0:00:58.55    \nframe=   51 fps=0.9 q=31.0 size=       1KiB time=00:00:01.00 bitrate=   4.5kbits/s speed=0.0169x elapsed=0:00:59.07    \nframe=   52 fps=0.9 q=28.0 size=       1KiB time=00:00:01.02 bitrate=   4.4kbits/s speed=0.0171x elapsed=0:00:59.61    \nframe=   52 fps=0.9 q=28.0 size=       1KiB time=00:00:01.02 bitrate=   4.4kbits/s speed=0.017x elapsed=0:01:00.14    \nframe=   53 fps=0.9 q=28.0 size=       1KiB time=00:00:01.04 bitrate=   4.3kbits/s speed=0.0171x elapsed=0:01:00.70    \nframe=   53 fps=0.9 q=28.0 size=       1KiB time=00:00:01.04 bitrate=   4.3kbits/s speed=0.017x elapsed=0:01:01.23    \nframe=   54 fps=0.9 q=29.0 size=       1KiB time=00:00:01.06 bitrate=   4.2kbits/s speed=0.0171x elapsed=0:01:01.80    \nframe=   54 fps=0.9 q=29.0 size=       1KiB time=00:00:01.06 bitrate=   4.2kbits/s speed=0.017x elapsed=0:01:02.36    \nframe=   54 fps=0.9 q=29.0 size=       1KiB time=00:00:01.06 bitrate=   4.2kbits/s speed=0.0168x elapsed=0:01:02.93    \nframe=   54 fps=0.9 q=29.0 size=       1KiB time=00:00:01.06 bitrate=   4.2kbits/s speed=0.0167x elapsed=0:01:03.49    \nframe=   55 fps=0.9 q=31.0 size=       1KiB time=00:00:01.08 bitrate=   4.2kbits/s speed=0.0169x elapsed=0:01:04.05    \nframe=   55 fps=0.9 q=31.0 size=       1KiB time=00:00:01.08 bitrate=   4.2kbits/s speed=0.0167x elapsed=0:01:04.59    \nframe=   56 fps=0.9 q=29.0 size=       1KiB time=00:00:01.10 bitrate=   4.1kbits/s speed=0.0169x elapsed=0:01:05.12    \nframe=   58 fps=0.9 q=29.0 size=       1KiB time=00:00:01.14 bitrate=   3.9kbits/s speed=0.0174x elapsed=0:01:05.68    \nframe=   58 fps=0.9 q=29.0 size=       1KiB time=00:00:01.14 bitrate=   3.9kbits/s speed=0.0172x elapsed=0:01:06.22    \nframe=   59 fps=0.9 q=31.0 size=       1KiB time=00:00:01.16 bitrate=   3.9kbits/s speed=0.0174x elapsed=0:01:06.75    \nframe=   59 fps=0.9 q=31.0 size=       1KiB time=00:00:01.16 bitrate=   3.9kbits/s speed=0.0172x elapsed=0:01:07.28    \nframe=   60 fps=0.9 q=30.0 size=       1KiB time=00:00:01.18 bitrate=   3.8kbits/s speed=0.0174x elapsed=0:01:07.80    \nframe=   60 fps=0.9 q=30.0 size=       1KiB time=00:00:01.18 bitrate=   3.8kbits/s speed=0.0173x elapsed=0:01:08.35    \nframe=   63 fps=0.9 q=29.0 size=       1KiB time=00:00:01.24 bitrate=   3.6kbits/s speed=0.018x elapsed=0:01:08.88    \nframe=   63 fps=0.9 q=29.0 size=       1KiB time=00:00:01.24 bitrate=   3.6kbits/s speed=0.0179x elapsed=0:01:09.44    \nframe=   64 fps=0.9 q=30.0 size=       1KiB time=00:00:01.26 bitrate=   3.6kbits/s speed=0.018x elapsed=0:01:09.97    \nframe=   65 fps=0.9 q=11.0 size=       1KiB time=00:00:01.28 bitrate=   3.5kbits/s speed=0.0182x elapsed=0:01:10.49    \nframe=   65 fps=0.9 q=11.0 size=       1KiB time=00:00:01.28 bitrate=   3.5kbits/s speed=0.018x elapsed=0:01:11.01    \nframe=   66 fps=0.9 q=29.0 size=       1KiB time=00:00:01.30 bitrate=   3.5kbits/s speed=0.0182x elapsed=0:01:11.57    \nframe=   66 fps=0.9 q=29.0 size=       1KiB time=00:00:01.30 bitrate=   3.5kbits/s speed=0.018x elapsed=0:01:12.12    \nframe=   67 fps=0.9 q=30.0 size=       1KiB time=00:00:01.32 bitrate=   3.4kbits/s speed=0.0182x elapsed=0:01:12.70    \nframe=   67 fps=0.9 q=30.0 size=       1KiB time=00:00:01.32 bitrate=   3.4kbits/s speed=0.018x elapsed=0:01:13.26    \nframe=   67 fps=0.9 q=30.0 size=       1KiB time=00:00:01.32 bitrate=   3.4kbits/s speed=0.0179x elapsed=0:01:13.78    \nframe=   68 fps=0.9 q=29.0 size=       1KiB time=00:00:01.34 bitrate=   3.4kbits/s speed=0.018x elapsed=0:01:14.33    \nframe=   68 fps=0.9 q=29.0 size=       1KiB time=00:00:01.34 bitrate=   3.4kbits/s speed=0.0179x elapsed=0:01:14.87    \nframe=   69 fps=0.9 q=28.0 size=       1KiB time=00:00:01.36 bitrate=   3.3kbits/s speed=0.018x elapsed=0:01:15.40    \nframe=   69 fps=0.9 q=28.0 size=       1KiB time=00:00:01.36 bitrate=   3.3kbits/s speed=0.0179x elapsed=0:01:15.92    \nframe=   70 fps=0.9 q=29.0 size=       1KiB time=00:00:01.38 bitrate=   3.3kbits/s speed=0.0181x elapsed=0:01:16.44    \nframe=   70 fps=0.9 q=29.0 size=       1KiB time=00:00:01.38 bitrate=   3.3kbits/s speed=0.0179x elapsed=0:01:16.97    \nframe=   70 fps=0.9 q=29.0 size=       1KiB time=00:00:01.38 bitrate=   3.3kbits/s speed=0.0178x elapsed=0:01:17.48    \nframe=   71 fps=0.9 q=28.0 size=       1KiB time=00:00:01.40 bitrate=   3.2kbits/s speed=0.0179x elapsed=0:01:18.00    \nframe=   71 fps=0.9 q=28.0 size=       1KiB time=00:00:01.40 bitrate=   3.2kbits/s speed=0.0178x elapsed=0:01:18.56    \nframe=   72 fps=0.9 q=29.0 size=       1KiB time=00:00:01.42 bitrate=   3.2kbits/s speed=0.018x elapsed=0:01:19.10    \nframe=   73 fps=0.9 q=21.0 size=       1KiB time=00:00:01.44 bitrate=   3.1kbits/s speed=0.0181x elapsed=0:01:19.65    \nframe=   74 fps=0.9 q=31.0 size=       1KiB time=00:00:01.46 bitrate=   3.1kbits/s speed=0.0182x elapsed=0:01:20.17    \nframe=   75 fps=0.9 q=30.0 size=       1KiB time=00:00:01.48 bitrate=   3.0kbits/s speed=0.0183x elapsed=0:01:20.69    \nframe=   75 fps=0.9 q=30.0 size=       1KiB time=00:00:01.48 bitrate=   3.0kbits/s speed=0.0182x elapsed=0:01:21.23    \nframe=   77 fps=0.9 q=27.0 size=       1KiB time=00:00:01.52 bitrate=   3.0kbits/s speed=0.0186x elapsed=0:01:21.76    \nframe=   78 fps=0.9 q=31.0 size=       1KiB time=00:00:01.54 bitrate=   2.9kbits/s speed=0.0187x elapsed=0:01:22.29    \nframe=   78 fps=0.9 q=31.0 size=       1KiB time=00:00:01.54 bitrate=   2.9kbits/s speed=0.0186x elapsed=0:01:22.81    \nframe=   79 fps=0.9 q=29.0 size=       1KiB time=00:00:01.56 bitrate=   2.9kbits/s speed=0.0187x elapsed=0:01:23.34    \nframe=   80 fps=1.0 q=31.0 size=       1KiB time=00:00:01.58 bitrate=   2.8kbits/s speed=0.0188x elapsed=0:01:23.86    \nframe=   80 fps=0.9 q=31.0 size=       1KiB time=00:00:01.58 bitrate=   2.8kbits/s speed=0.0187x elapsed=0:01:24.37    \nframe=   81 fps=1.0 q=12.0 size=       1KiB time=00:00:01.60 bitrate=   2.8kbits/s speed=0.0188x elapsed=0:01:24.90    \nframe=   81 fps=0.9 q=12.0 size=       1KiB time=00:00:01.60 bitrate=   2.8kbits/s speed=0.0187x elapsed=0:01:25.43    \nframe=   81 fps=0.9 q=12.0 size=       1KiB time=00:00:01.60 bitrate=   2.8kbits/s speed=0.0186x elapsed=0:01:25.95    \nframe=   82 fps=0.9 q=31.0 size=       1KiB time=00:00:01.62 bitrate=   2.8kbits/s speed=0.0187x elapsed=0:01:26.50    \nframe=   82 fps=0.9 q=31.0 size=       1KiB time=00:00:01.62 bitrate=   2.8kbits/s speed=0.0186x elapsed=0:01:27.05    \nframe=   83 fps=0.9 q=30.0 size=       1KiB time=00:00:01.64 bitrate=   2.7kbits/s speed=0.0187x elapsed=0:01:27.57    \nframe=   83 fps=0.9 q=30.0 size=       1KiB time=00:00:01.64 bitrate=   2.7kbits/s speed=0.0186x elapsed=0:01:28.11    \nframe=   84 fps=0.9 q=31.0 size=       1KiB time=00:00:01.66 bitrate=   2.7kbits/s speed=0.0187x elapsed=0:01:28.63    \nframe=   85 fps=1.0 q=27.0 size=       1KiB time=00:00:01.66 bitrate=   2.7kbits/s speed=0.0186x elapsed=0:01:29.14    \nframe=   85 fps=0.9 q=27.0 size=       1KiB time=00:00:01.68 bitrate=   2.7kbits/s speed=0.0187x elapsed=0:01:29.70    \nframe=   86 fps=1.0 q=32.0 size=       1KiB time=00:00:01.70 bitrate=   2.6kbits/s speed=0.0188x elapsed=0:01:30.21    \nframe=   86 fps=0.9 q=32.0 size=       1KiB time=00:00:01.70 bitrate=   2.6kbits/s speed=0.0187x elapsed=0:01:30.74    \nframe=   87 fps=1.0 q=30.0 size=       1KiB time=00:00:01.72 bitrate=   2.6kbits/s speed=0.0188x elapsed=0:01:31.27    \nframe=   87 fps=0.9 q=30.0 size=       1KiB time=00:00:01.72 bitrate=   2.6kbits/s speed=0.0187x elapsed=0:01:31.82    \nframe=   88 fps=1.0 q=32.0 size=       1KiB time=00:00:01.74 bitrate=   2.6kbits/s speed=0.0188x elapsed=0:01:32.36    \nframe=   90 fps=1.0 q=32.0 size=       1KiB time=00:00:01.78 bitrate=   2.5kbits/s speed=0.0192x elapsed=0:01:32.92    \nframe=   90 fps=1.0 q=32.0 size=       1KiB time=00:00:01.78 bitrate=   2.5kbits/s speed=0.019x elapsed=0:01:33.46    \nframe=   91 fps=1.0 q=30.0 size=       1KiB time=00:00:01.80 bitrate=   2.5kbits/s speed=0.0191x elapsed=0:01:34.02    \nframe=   91 fps=1.0 q=30.0 size=       1KiB time=00:00:01.80 bitrate=   2.5kbits/s speed=0.019x elapsed=0:01:34.53    \nframe=   91 fps=1.0 q=30.0 size=       1KiB time=00:00:01.80 bitrate=   2.5kbits/s speed=0.0189x elapsed=0:01:35.12    \nframe=   92 fps=1.0 q=30.0 size=       1KiB time=00:00:01.82 bitrate=   2.5kbits/s speed=0.019x elapsed=0:01:35.69    \nframe=   93 fps=1.0 q=27.0 size=       1KiB time=00:00:01.84 bitrate=   2.4kbits/s speed=0.0191x elapsed=0:01:36.27    \nframe=   94 fps=1.0 q=33.0 size=       1KiB time=00:00:01.86 bitrate=   2.4kbits/s speed=0.0192x elapsed=0:01:36.85    \nframe=   95 fps=1.0 q=30.0 size=       1KiB time=00:00:01.88 bitrate=   2.4kbits/s speed=0.0193x elapsed=0:01:37.43    \nframe=   97 fps=1.0 q=11.0 size=       1KiB time=00:00:01.92 bitrate=   2.3kbits/s speed=0.0196x elapsed=0:01:37.99    \nframe=   98 fps=1.0 q=34.0 size=       1KiB time=00:00:01.92 bitrate=   2.3kbits/s speed=0.0195x elapsed=0:01:38.54    \nframe=   98 fps=1.0 q=34.0 size=       1KiB time=00:00:01.94 bitrate=   2.3kbits/s speed=0.0196x elapsed=0:01:39.07    \nframe=   99 fps=1.0 q=33.0 size=       1KiB time=00:00:01.96 bitrate=   2.3kbits/s speed=0.0197x elapsed=0:01:39.60    \nframe=   99 fps=1.0 q=33.0 size=       1KiB time=00:00:01.96 bitrate=   2.3kbits/s speed=0.0196x elapsed=0:01:40.12    \nframe=  100 fps=1.0 q=34.0 size=       1KiB time=00:00:01.98 bitrate=   2.3kbits/s speed=0.0197x elapsed=0:01:40.64    \nframe=  100 fps=1.0 q=34.0 size=       1KiB time=00:00:01.98 bitrate=   2.3kbits/s speed=0.0196x elapsed=0:01:41.20    \nframe=  101 fps=1.0 q=30.0 size=       1KiB time=00:00:02.00 bitrate=   2.2kbits/s speed=0.0197x elapsed=0:01:41.71    \nframe=  102 fps=1.0 q=34.0 size=       1KiB time=00:00:02.02 bitrate=   2.2kbits/s speed=0.0198x elapsed=0:01:42.24    \nframe=  102 fps=1.0 q=34.0 size=       1KiB time=00:00:02.02 bitrate=   2.2kbits/s speed=0.0197x elapsed=0:01:42.76    \nframe=  102 fps=1.0 q=34.0 size=       1KiB time=00:00:02.02 bitrate=   2.2kbits/s speed=0.0196x elapsed=0:01:43.31    \nframe=  103 fps=1.0 q=33.0 size=       1KiB time=00:00:02.04 bitrate=   2.2kbits/s speed=0.0196x elapsed=0:01:43.82    \nframe=  104 fps=1.0 q=34.0 size=       1KiB time=00:00:02.06 bitrate=   2.2kbits/s speed=0.0197x elapsed=0:01:44.38    \nframe=  106 fps=1.0 q=34.0 size=       1KiB time=00:00:02.08 bitrate=   2.2kbits/s speed=0.0198x elapsed=0:01:44.95    \nframe=  106 fps=1.0 q=34.0 size=       1KiB time=00:00:02.10 bitrate=   2.1kbits/s speed=0.0199x elapsed=0:01:45.53    \nframe=  107 fps=1.0 q=32.0 size=       1KiB time=00:00:02.12 bitrate=   2.1kbits/s speed=0.02x elapsed=0:01:46.14    \nframe=  107 fps=1.0 q=32.0 size=       1KiB time=00:00:02.12 bitrate=   2.1kbits/s speed=0.0199x elapsed=0:01:46.67    \nframe=  108 fps=1.0 q=31.0 size=       1KiB time=00:00:02.14 bitrate=   2.1kbits/s speed=0.02x elapsed=0:01:47.20    \nframe=  108 fps=1.0 q=31.0 size=       1KiB time=00:00:02.14 bitrate=   2.1kbits/s speed=0.0199x elapsed=0:01:47.74    \nframe=  110 fps=1.0 q=33.0 size=       1KiB time=00:00:02.18 bitrate=   2.1kbits/s speed=0.0201x elapsed=0:01:48.26    \nframe=  110 fps=1.0 q=33.0 size=       1KiB time=00:00:02.18 bitrate=   2.1kbits/s speed=0.02x elapsed=0:01:48.81    \nframe=  111 fps=1.0 q=31.0 size=       1KiB time=00:00:02.20 bitrate=   2.0kbits/s speed=0.0201x elapsed=0:01:49.42    \nframe=  112 fps=1.0 q=28.0 size=       1KiB time=00:00:02.22 bitrate=   2.0kbits/s speed=0.0202x elapsed=0:01:49.96    \nframe=  113 fps=1.0 q=14.0 size=       1KiB time=00:00:02.24 bitrate=   2.0kbits/s speed=0.0203x elapsed=0:01:50.47    \nframe=  113 fps=1.0 q=14.0 size=       1KiB time=00:00:02.24 bitrate=   2.0kbits/s speed=0.0202x elapsed=0:01:50.99    \nframe=  114 fps=1.0 q=34.0 size=       1KiB time=00:00:02.26 bitrate=   2.0kbits/s speed=0.0203x elapsed=0:01:51.55    \nframe=  115 fps=1.0 q=33.0 size=       1KiB time=00:00:02.28 bitrate=   2.0kbits/s speed=0.0203x elapsed=0:01:52.11    \nframe=  115 fps=1.0 q=33.0 size=       1KiB time=00:00:02.28 bitrate=   2.0kbits/s speed=0.0202x elapsed=0:01:52.65    \nframe=  116 fps=1.0 q=34.0 size=       1KiB time=00:00:02.30 bitrate=   2.0kbits/s speed=0.0203x elapsed=0:01:53.17    \nframe=  117 fps=1.0 q=31.0 size=       1KiB time=00:00:02.32 bitrate=   1.9kbits/s speed=0.0204x elapsed=0:01:53.70    \nframe=  118 fps=1.0 q=34.0 size=       1KiB time=00:00:02.34 bitrate=   1.9kbits/s speed=0.0205x elapsed=0:01:54.23    \nframe=  118 fps=1.0 q=34.0 size=       1KiB time=00:00:02.34 bitrate=   1.9kbits/s speed=0.0204x elapsed=0:01:54.79    \nframe=  119 fps=1.0 q=33.0 size=       1KiB time=00:00:02.36 bitrate=   1.9kbits/s speed=0.0205x elapsed=0:01:55.32    \nframe=  119 fps=1.0 q=33.0 size=       1KiB time=00:00:02.36 bitrate=   1.9kbits/s speed=0.0204x elapsed=0:01:55.84    \nframe=  119 fps=1.0 q=33.0 size=       1KiB time=00:00:02.36 bitrate=   1.9kbits/s speed=0.0203x elapsed=0:01:56.38    \nframe=  120 fps=1.0 q=34.0 size=       1KiB time=00:00:02.38 bitrate=   1.9kbits/s speed=0.0204x elapsed=0:01:56.89    \nframe=  121 fps=1.0 q=26.0 size=       1KiB time=00:00:02.40 bitrate=   1.9kbits/s speed=0.0204x elapsed=0:01:57.40    \nframe=  122 fps=1.0 q=34.0 size=       1KiB time=00:00:02.40 bitrate=   1.9kbits/s speed=0.0203x elapsed=0:01:57.97    \nframe=  122 fps=1.0 q=34.0 size=       1KiB time=00:00:02.42 bitrate=   1.9kbits/s speed=0.0204x elapsed=0:01:58.57    \nframe=  123 fps=1.0 q=32.0 size=       1KiB time=00:00:02.44 bitrate=   1.8kbits/s speed=0.0205x elapsed=0:01:59.17    \nframe=  123 fps=1.0 q=32.0 size=       1KiB time=00:00:02.44 bitrate=   1.8kbits/s speed=0.0204x elapsed=0:01:59.72    \nframe=  123 fps=1.0 q=32.0 size=       1KiB time=00:00:02.44 bitrate=   1.8kbits/s speed=0.0203x elapsed=0:02:00.33    \nframe=  124 fps=1.0 q=32.0 size=       1KiB time=00:00:02.46 bitrate=   1.8kbits/s speed=0.0204x elapsed=0:02:00.88    \nframe=  127 fps=1.0 q=32.0 size=       1KiB time=00:00:02.48 bitrate=   1.8kbits/s speed=0.0204x elapsed=0:02:01.48    \nframe=  129 fps=1.1 q=17.0 size=       1KiB time=00:00:02.54 bitrate=   1.8kbits/s speed=0.0207x elapsed=0:02:02.51    \nframe=  129 fps=1.0 q=17.0 size=       1KiB time=00:00:02.56 bitrate=   1.8kbits/s speed=0.0207x elapsed=0:02:03.43    \nframe=  130 fps=1.0 q=35.0 size=       1KiB time=00:00:02.58 bitrate=   1.7kbits/s speed=0.0208x elapsed=0:02:03.94    \nframe=  131 fps=1.1 q=34.0 size=       1KiB time=00:00:02.60 bitrate=   1.7kbits/s speed=0.0209x elapsed=0:02:04.65    \nframe=  131 fps=1.0 q=34.0 size=       1KiB time=00:00:02.60 bitrate=   1.7kbits/s speed=0.0208x elapsed=0:02:05.17    \nframe=  132 fps=1.1 q=35.0 size=       1KiB time=00:00:02.62 bitrate=   1.7kbits/s speed=0.0208x elapsed=0:02:05.69    \nframe=  132 fps=1.0 q=35.0 size=       1KiB time=00:00:02.62 bitrate=   1.7kbits/s speed=0.0208x elapsed=0:02:06.20    \nframe=  133 fps=1.0 q=32.0 size=       1KiB time=00:00:02.64 bitrate=   1.7kbits/s speed=0.0208x elapsed=0:02:06.73    \nframe=  134 fps=1.1 q=35.0 size=       1KiB time=00:00:02.66 bitrate=   1.7kbits/s speed=0.0209x elapsed=0:02:07.24    \nframe=  134 fps=1.0 q=35.0 size=       1KiB time=00:00:02.66 bitrate=   1.7kbits/s speed=0.0208x elapsed=0:02:07.75    \nframe=  134 fps=1.0 q=35.0 size=       1KiB time=00:00:02.66 bitrate=   1.7kbits/s speed=0.0207x elapsed=0:02:08.27    \nframe=  135 fps=1.0 q=34.0 size=       1KiB time=00:00:02.68 bitrate=   1.7kbits/s speed=0.0208x elapsed=0:02:08.80    \nframe=  135 fps=1.0 q=34.0 size=       1KiB time=00:00:02.68 bitrate=   1.7kbits/s speed=0.0207x elapsed=0:02:09.32    \nframe=  135 fps=1.0 q=34.0 size=       1KiB time=00:00:02.68 bitrate=   1.7kbits/s speed=0.0206x elapsed=0:02:09.82    \nframe=  136 fps=1.0 q=35.0 size=       1KiB time=00:00:02.70 bitrate=   1.7kbits/s speed=0.0207x elapsed=0:02:10.34    \nframe=  136 fps=1.0 q=35.0 size=       1KiB time=00:00:02.70 bitrate=   1.7kbits/s speed=0.0206x elapsed=0:02:10.86    \nframe=  139 fps=1.1 q=32.0 size=       1KiB time=00:00:02.76 bitrate=   1.6kbits/s speed=0.021x elapsed=0:02:11.37    \nframe=  139 fps=1.1 q=32.0 size=       1KiB time=00:00:02.76 bitrate=   1.6kbits/s speed=0.0209x elapsed=0:02:11.89    \nframe=  140 fps=1.1 q=34.0 size=       1KiB time=00:00:02.78 bitrate=   1.6kbits/s speed=0.021x elapsed=0:02:12.40    \nframe=  140 fps=1.1 q=34.0 size=       1KiB time=00:00:02.78 bitrate=   1.6kbits/s speed=0.0209x elapsed=0:02:12.93    \nframe=  141 fps=1.1 q=28.0 size=       1KiB time=00:00:02.80 bitrate=   1.6kbits/s speed=0.021x elapsed=0:02:13.43    \nframe=  142 fps=1.1 q=34.0 size=       1KiB time=00:00:02.82 bitrate=   1.6kbits/s speed=0.021x elapsed=0:02:13.96    \nframe=  144 fps=1.1 q=34.0 size=       1KiB time=00:00:02.86 bitrate=   1.6kbits/s speed=0.0213x elapsed=0:02:14.47    \nframe=  145 fps=1.1 q=18.0 size=       1KiB time=00:00:02.88 bitrate=   1.6kbits/s speed=0.0213x elapsed=0:02:14.98    \nframe=  146 fps=1.1 q=35.0 size=       1KiB time=00:00:02.90 bitrate=   1.6kbits/s speed=0.0214x elapsed=0:02:15.50    \nframe=  147 fps=1.1 q=34.0 size=       1KiB time=00:00:02.92 bitrate=   1.5kbits/s speed=0.0215x elapsed=0:02:16.02    \nframe=  147 fps=1.1 q=34.0 size=       1KiB time=00:00:02.92 bitrate=   1.5kbits/s speed=0.0214x elapsed=0:02:16.53    \nframe=  148 fps=1.1 q=35.0 size=       1KiB time=00:00:02.94 bitrate=   1.5kbits/s speed=0.0215x elapsed=0:02:17.04    \nframe=  148 fps=1.1 q=35.0 size=       1KiB time=00:00:02.94 bitrate=   1.5kbits/s speed=0.0214x elapsed=0:02:17.56    \nframe=  149 fps=1.1 q=31.0 size=       1KiB time=00:00:02.96 bitrate=   1.5kbits/s speed=0.0214x elapsed=0:02:18.08    \nframe=  150 fps=1.1 q=33.0 size=       1KiB time=00:00:02.98 bitrate=   1.5kbits/s speed=0.0215x elapsed=0:02:18.59    \nframe=  150 fps=1.1 q=33.0 size=       1KiB time=00:00:02.98 bitrate=   1.5kbits/s speed=0.0214x elapsed=0:02:19.11    \nframe=  151 fps=1.1 q=30.0 size=       1KiB time=00:00:03.00 bitrate=   1.5kbits/s speed=0.0215x elapsed=0:02:19.62    \nframe=  151 fps=1.1 q=30.0 size=       1KiB time=00:00:03.00 bitrate=   1.5kbits/s speed=0.0214x elapsed=0:02:20.14    \nframe=  151 fps=1.1 q=30.0 size=       1KiB time=00:00:03.00 bitrate=   1.5kbits/s speed=0.0213x elapsed=0:02:20.66    \nframe=  152 fps=1.1 q=33.0 size=       1KiB time=00:00:03.02 bitrate=   1.5kbits/s speed=0.0214x elapsed=0:02:21.18    \nframe=  153 fps=1.1 q=26.0 size=       1KiB time=00:00:03.04 bitrate=   1.5kbits/s speed=0.0215x elapsed=0:02:21.70    \nframe=  154 fps=1.1 q=34.0 size=       1KiB time=00:00:03.06 bitrate=   1.5kbits/s speed=0.0215x elapsed=0:02:22.21    \nframe=  154 fps=1.1 q=34.0 size=       1KiB time=00:00:03.06 bitrate=   1.5kbits/s speed=0.0214x elapsed=0:02:22.72    \nframe=  155 fps=1.1 q=32.0 size=       1KiB time=00:00:03.08 bitrate=   1.5kbits/s speed=0.0215x elapsed=0:02:23.23    \nframe=  155 fps=1.1 q=32.0 size=       1KiB time=00:00:03.08 bitrate=   1.5kbits/s speed=0.0214x elapsed=0:02:23.75    \nframe=  155 fps=1.1 q=32.0 size=       1KiB time=00:00:03.08 bitrate=   1.5kbits/s speed=0.0213x elapsed=0:02:24.26    \nframe=  157 fps=1.1 q=28.0 size=       1KiB time=00:00:03.12 bitrate=   1.4kbits/s speed=0.0215x elapsed=0:02:24.78    \nframe=  157 fps=1.1 q=28.0 size=       1KiB time=00:00:03.12 bitrate=   1.4kbits/s speed=0.0215x elapsed=0:02:25.29    \nframe=  158 fps=1.1 q=33.0 size=       1KiB time=00:00:03.14 bitrate=   1.4kbits/s speed=0.0215x elapsed=0:02:25.81    \nframe=  158 fps=1.1 q=33.0 size=       1KiB time=00:00:03.14 bitrate=   1.4kbits/s speed=0.0215x elapsed=0:02:26.33    \nframe=  160 fps=1.1 q=33.0 size=       1KiB time=00:00:03.18 bitrate=   1.4kbits/s speed=0.0217x elapsed=0:02:26.84    \nframe=  161 fps=1.1 q=16.0 size=       1KiB time=00:00:03.20 bitrate=   1.4kbits/s speed=0.0217x elapsed=0:02:27.36    \nframe=  162 fps=1.1 q=34.0 size=       1KiB time=00:00:03.22 bitrate=   1.4kbits/s speed=0.0218x elapsed=0:02:27.88    \nframe=  163 fps=1.1 q=32.0 size=       1KiB time=00:00:03.24 bitrate=   1.4kbits/s speed=0.0218x elapsed=0:02:28.39    \nframe=  163 fps=1.1 q=32.0 size=       1KiB time=00:00:03.24 bitrate=   1.4kbits/s speed=0.0218x elapsed=0:02:28.91    \nframe=  164 fps=1.1 q=34.0 size=       1KiB time=00:00:03.26 bitrate=   1.4kbits/s speed=0.0218x elapsed=0:02:29.43    \nframe=  164 fps=1.1 q=34.0 size=       1KiB time=00:00:03.26 bitrate=   1.4kbits/s speed=0.0217x elapsed=0:02:29.94    \nframe=  165 fps=1.1 q=28.0 size=       1KiB time=00:00:03.28 bitrate=   1.4kbits/s speed=0.0218x elapsed=0:02:30.46    \nframe=  165 fps=1.1 q=28.0 size=       1KiB time=00:00:03.28 bitrate=   1.4kbits/s speed=0.0217x elapsed=0:02:30.96    \nframe=  166 fps=1.1 q=34.0 size=       1KiB time=00:00:03.30 bitrate=   1.4kbits/s speed=0.0218x elapsed=0:02:31.49    \nframe=  166 fps=1.1 q=34.0 size=       1KiB time=00:00:03.30 bitrate=   1.4kbits/s speed=0.0217x elapsed=0:02:32.01    \nframe=  166 fps=1.1 q=34.0 size=       1KiB time=00:00:03.30 bitrate=   1.4kbits/s speed=0.0216x elapsed=0:02:32.52    \nframe=  167 fps=1.1 q=32.0 size=       1KiB time=00:00:03.32 bitrate=   1.4kbits/s speed=0.0217x elapsed=0:02:33.04    \nframe=  167 fps=1.1 q=32.0 size=       1KiB time=00:00:03.32 bitrate=   1.4kbits/s speed=0.0216x elapsed=0:02:33.55    \nframe=  167 fps=1.1 q=32.0 size=       1KiB time=00:00:03.32 bitrate=   1.4kbits/s speed=0.0215x elapsed=0:02:34.07    \nframe=  168 fps=1.1 q=34.0 size=       1KiB time=00:00:03.34 bitrate=   1.3kbits/s speed=0.0216x elapsed=0:02:34.57    \nframe=  169 fps=1.1 q=27.0 size=       1KiB time=00:00:03.36 bitrate=   1.3kbits/s speed=0.0217x elapsed=0:02:35.10    \nframe=  170 fps=1.1 q=34.0 size=       1KiB time=00:00:03.38 bitrate=   1.3kbits/s speed=0.0217x elapsed=0:02:35.61    \nframe=  170 fps=1.1 q=34.0 size=       1KiB time=00:00:03.38 bitrate=   1.3kbits/s speed=0.0216x elapsed=0:02:36.13    \nframe=  171 fps=1.1 q=32.0 size=       1KiB time=00:00:03.40 bitrate=   1.3kbits/s speed=0.0217x elapsed=0:02:36.64    \nframe=  171 fps=1.1 q=32.0 size=       1KiB time=00:00:03.40 bitrate=   1.3kbits/s speed=0.0216x elapsed=0:02:37.16    \nframe=  173 fps=1.1 q=28.0 size=       1KiB time=00:00:03.44 bitrate=   1.3kbits/s speed=0.0218x elapsed=0:02:37.68    \nframe=  174 fps=1.1 q=34.0 size=       1KiB time=00:00:03.46 bitrate=   1.3kbits/s speed=0.0219x elapsed=0:02:38.19    \nframe=  175 fps=1.1 q=31.0 size=       1KiB time=00:00:03.48 bitrate=   1.3kbits/s speed=0.0219x elapsed=0:02:38.71    \nframe=  176 fps=1.1 q=29.0 size=       1KiB time=00:00:03.50 bitrate=   1.3kbits/s speed=0.022x elapsed=0:02:39.23    \nframe=  177 fps=1.1 q=17.0 size=       1KiB time=00:00:03.52 bitrate=   1.3kbits/s speed=0.022x elapsed=0:02:39.75    \nframe=  178 fps=1.1 q=34.0 size=       1KiB time=00:00:03.52 bitrate=   1.3kbits/s speed=0.022x elapsed=0:02:40.34    \nframe=  178 fps=1.1 q=34.0 size=       1KiB time=00:00:03.54 bitrate=   1.3kbits/s speed=0.022x elapsed=0:02:40.89    \nframe=  179 fps=1.1 q=33.0 size=       1KiB time=00:00:03.56 bitrate=   1.3kbits/s speed=0.0221x elapsed=0:02:41.42    \nframe=  179 fps=1.1 q=33.0 size=       1KiB time=00:00:03.56 bitrate=   1.3kbits/s speed=0.022x elapsed=0:02:41.95    \nframe=  179 fps=1.1 q=33.0 size=       1KiB time=00:00:03.56 bitrate=   1.3kbits/s speed=0.0219x elapsed=0:02:42.51    \nframe=  180 fps=1.1 q=34.0 size=       1KiB time=00:00:03.58 bitrate=   1.3kbits/s speed=0.022x elapsed=0:02:43.07    \nframe=  180 fps=1.1 q=34.0 size=       1KiB time=00:00:03.58 bitrate=   1.3kbits/s speed=0.0219x elapsed=0:02:43.59    \nframe=  181 fps=1.1 q=31.0 size=       1KiB time=00:00:03.60 bitrate=   1.2kbits/s speed=0.0219x elapsed=0:02:44.12    \nframe=  182 fps=1.1 q=34.0 size=       1KiB time=00:00:03.62 bitrate=   1.2kbits/s speed=0.022x elapsed=0:02:44.66    \nframe=  182 fps=1.1 q=34.0 size=       1KiB time=00:00:03.62 bitrate=   1.2kbits/s speed=0.0219x elapsed=0:02:45.23    \nframe=  182 fps=1.1 q=34.0 size=       1KiB time=00:00:03.62 bitrate=   1.2kbits/s speed=0.0218x elapsed=0:02:45.78    \nframe=  183 fps=1.1 q=33.0 size=       1KiB time=00:00:03.64 bitrate=   1.2kbits/s speed=0.0219x elapsed=0:02:46.37    \nframe=  183 fps=1.1 q=33.0 size=       1KiB time=00:00:03.64 bitrate=   1.2kbits/s speed=0.0218x elapsed=0:02:46.90    \nframe=  185 fps=1.1 q=27.0 size=       1KiB time=00:00:03.68 bitrate=   1.2kbits/s speed=0.022x elapsed=0:02:47.41    \nframe=  186 fps=1.1 q=33.0 size=       1KiB time=00:00:03.70 bitrate=   1.2kbits/s speed=0.022x elapsed=0:02:48.02    \nframe=  186 fps=1.1 q=33.0 size=       1KiB time=00:00:03.70 bitrate=   1.2kbits/s speed=0.0219x elapsed=0:02:48.61    \nframe=  187 fps=1.1 q=31.0 size=       1KiB time=00:00:03.72 bitrate=   1.2kbits/s speed=0.022x elapsed=0:02:49.12    \nframe=  187 fps=1.1 q=31.0 size=       1KiB time=00:00:03.72 bitrate=   1.2kbits/s speed=0.0219x elapsed=0:02:49.64    \nframe=  189 fps=1.1 q=27.0 size=       1KiB time=00:00:03.74 bitrate=   1.2kbits/s speed=0.022x elapsed=0:02:50.16    \nframe=  190 fps=1.1 q=34.0 size=       1KiB time=00:00:03.78 bitrate=   1.2kbits/s speed=0.0221x elapsed=0:02:50.72    \nframe=  190 fps=1.1 q=34.0 size=       1KiB time=00:00:03.78 bitrate=   1.2kbits/s speed=0.0221x elapsed=0:02:51.28    \nframe=  192 fps=1.1 q=27.0 size=       1KiB time=00:00:03.82 bitrate=   1.2kbits/s speed=0.0222x elapsed=0:02:51.82    \nframe=  192 fps=1.1 q=27.0 size=       1KiB time=00:00:03.82 bitrate=   1.2kbits/s speed=0.0222x elapsed=0:02:52.33    \nframe=  193 fps=1.1 q=16.0 size=       1KiB time=00:00:03.84 bitrate=   1.2kbits/s speed=0.0222x elapsed=0:02:52.84    \nframe=  194 fps=1.1 q=34.0 size=       1KiB time=00:00:03.86 bitrate=   1.2kbits/s speed=0.0223x elapsed=0:02:53.41    \nframe=  195 fps=1.1 q=33.0 size=       1KiB time=00:00:03.88 bitrate=   1.2kbits/s speed=0.0223x elapsed=0:02:53.96    \nframe=  196 fps=1.1 q=34.0 size=       1KiB time=00:00:03.90 bitrate=   1.2kbits/s speed=0.0224x elapsed=0:02:54.49    \nframe=  197 fps=1.1 q=31.0 size=       1KiB time=00:00:03.92 bitrate=   1.1kbits/s speed=0.0224x elapsed=0:02:55.00    \nframe=  198 fps=1.1 q=34.0 size=       1KiB time=00:00:03.94 bitrate=   1.1kbits/s speed=0.0224x elapsed=0:02:55.54    \nframe=  198 fps=1.1 q=34.0 size=       1KiB time=00:00:03.94 bitrate=   1.1kbits/s speed=0.0224x elapsed=0:02:56.09    \nframe=  198 fps=1.1 q=34.0 size=       1KiB time=00:00:03.94 bitrate=   1.1kbits/s speed=0.0223x elapsed=0:02:56.62    \nframe=  199 fps=1.1 q=33.0 size=       1KiB time=00:00:03.96 bitrate=   1.1kbits/s speed=0.0224x elapsed=0:02:57.17    \nframe=  199 fps=1.1 q=33.0 size=       1KiB time=00:00:03.96 bitrate=   1.1kbits/s speed=0.0223x elapsed=0:02:57.74    \nframe=  199 fps=1.1 q=33.0 size=       1KiB time=00:00:03.96 bitrate=   1.1kbits/s speed=0.0222x elapsed=0:02:58.30    \nframe=  200 fps=1.1 q=34.0 size=       1KiB time=00:00:03.98 bitrate=   1.1kbits/s speed=0.0223x elapsed=0:02:58.83    \nframe=  202 fps=1.1 q=33.0 size=       1KiB time=00:00:04.02 bitrate=   1.1kbits/s speed=0.0224x elapsed=0:02:59.40    \nframe=  203 fps=1.1 q=31.0 size=       1KiB time=00:00:04.04 bitrate=   1.1kbits/s speed=0.0225x elapsed=0:02:59.92    \nframe=  203 fps=1.1 q=31.0 size=       1KiB time=00:00:04.04 bitrate=   1.1kbits/s speed=0.0224x elapsed=0:03:00.46    \nframe=  204 fps=1.1 q=30.0 size=       1KiB time=00:00:04.06 bitrate=   1.1kbits/s speed=0.0224x elapsed=0:03:00.99    \nframe=  204 fps=1.1 q=30.0 size=       1KiB time=00:00:04.06 bitrate=   1.1kbits/s speed=0.0224x elapsed=0:03:01.52    \nframe=  205 fps=1.1 q=27.0 size=       1KiB time=00:00:04.08 bitrate=   1.1kbits/s speed=0.0224x elapsed=0:03:02.04    \nframe=  207 fps=1.1 q=30.0 size=       1KiB time=00:00:04.12 bitrate=   1.1kbits/s speed=0.0226x elapsed=0:03:02.64    \nframe=  208 fps=1.1 q=32.0 size=       1KiB time=00:00:04.14 bitrate=   1.1kbits/s speed=0.0226x elapsed=0:03:03.19    \nframe=  208 fps=1.1 q=32.0 size=       1KiB time=00:00:04.14 bitrate=   1.1kbits/s speed=0.0225x elapsed=0:03:03.79    \nframe=  209 fps=1.1 q=19.0 size=       1KiB time=00:00:04.16 bitrate=   1.1kbits/s speed=0.0226x elapsed=0:03:04.31    \nframe=  210 fps=1.1 q=33.0 size=       1KiB time=00:00:04.18 bitrate=   1.1kbits/s speed=0.0226x elapsed=0:03:04.90    \nframe=  210 fps=1.1 q=33.0 size=       1KiB time=00:00:04.18 bitrate=   1.1kbits/s speed=0.0225x elapsed=0:03:05.42    \nframe=  211 fps=1.1 q=32.0 size=       1KiB time=00:00:04.20 bitrate=   1.1kbits/s speed=0.0226x elapsed=0:03:05.95    \nframe=  211 fps=1.1 q=32.0 size=       1KiB time=00:00:04.20 bitrate=   1.1kbits/s speed=0.0225x elapsed=0:03:06.47    \nframe=  212 fps=1.1 q=33.0 size=       1KiB time=00:00:04.22 bitrate=   1.1kbits/s speed=0.0226x elapsed=0:03:07.12    \nframe=  213 fps=1.1 q=30.0 size=       1KiB time=00:00:04.24 bitrate=   1.1kbits/s speed=0.0226x elapsed=0:03:07.66    \nframe=  214 fps=1.1 q=33.0 size=       1KiB time=00:00:04.26 bitrate=   1.1kbits/s speed=0.0226x elapsed=0:03:08.19    \nframe=  214 fps=1.1 q=33.0 size=       1KiB time=00:00:04.26 bitrate=   1.1kbits/s speed=0.0226x elapsed=0:03:08.77    \nframe=  215 fps=1.1 q=32.0 size=       1KiB time=00:00:04.26 bitrate=   1.1kbits/s speed=0.0225x elapsed=0:03:09.32    \nframe=  215 fps=1.1 q=32.0 size=       1KiB time=00:00:04.28 bitrate=   1.1kbits/s speed=0.0225x elapsed=0:03:09.96    \nframe=  215 fps=1.1 q=32.0 size=       1KiB time=00:00:04.28 bitrate=   1.1kbits/s speed=0.0225x elapsed=0:03:10.51    \nframe=  217 fps=1.1 q=25.0 size=       1KiB time=00:00:04.32 bitrate=   1.0kbits/s speed=0.0226x elapsed=0:03:11.10    \nframe=  218 fps=1.1 q=34.0 size=       1KiB time=00:00:04.34 bitrate=   1.0kbits/s speed=0.0226x elapsed=0:03:11.65    \nframe=  219 fps=1.1 q=31.0 size=       1KiB time=00:00:04.36 bitrate=   1.0kbits/s speed=0.0227x elapsed=0:03:12.35    \nframe=  221 fps=1.1 q=27.0 size=       1KiB time=00:00:04.38 bitrate=   1.0kbits/s speed=0.0227x elapsed=0:03:13.18    \nframe=  223 fps=1.1 q=30.0 size=       1KiB time=00:00:04.42 bitrate=   1.0kbits/s speed=0.0228x elapsed=0:03:14.11    \nframe=  224 fps=1.1 q=28.0 size=       1KiB time=00:00:04.46 bitrate=   1.0kbits/s speed=0.0229x elapsed=0:03:15.00    \nframe=  225 fps=1.1 q=13.0 size=       1KiB time=00:00:04.48 bitrate=   1.0kbits/s speed=0.0229x elapsed=0:03:15.79    \nframe=  226 fps=1.2 q=33.0 size=       1KiB time=00:00:04.50 bitrate=   1.0kbits/s speed=0.0229x elapsed=0:03:16.32    \nframe=  227 fps=1.2 q=32.0 size=       1KiB time=00:00:04.52 bitrate=   1.0kbits/s speed=0.023x elapsed=0:03:16.90    \nframe=  227 fps=1.1 q=32.0 size=       1KiB time=00:00:04.52 bitrate=   1.0kbits/s speed=0.0229x elapsed=0:03:17.47    \nframe=  228 fps=1.2 q=33.0 size=       1KiB time=00:00:04.54 bitrate=   1.0kbits/s speed=0.0229x elapsed=0:03:17.98    \nframe=  229 fps=1.2 q=33.0 size=       1KiB time=00:00:04.58 bitrate=   1.0kbits/s speed=0.0231x elapsed=0:03:18.52    \nframe=  230 fps=1.2 q=33.0 size=       1KiB time=00:00:04.58 bitrate=   1.0kbits/s speed=0.023x elapsed=0:03:19.03    \nframe=  230 fps=1.2 q=33.0 size=       1KiB time=00:00:04.58 bitrate=   1.0kbits/s speed=0.023x elapsed=0:03:19.55    \nframe=  231 fps=1.2 q=32.0 size=       1KiB time=00:00:04.58 bitrate=   1.0kbits/s speed=0.0229x elapsed=0:03:20.08    \nframe=  231 fps=1.2 q=32.0 size=       1KiB time=00:00:04.60 bitrate=   1.0kbits/s speed=0.0229x elapsed=0:03:20.80    \nframe=  232 fps=1.2 q=33.0 size=       1KiB time=00:00:04.62 bitrate=   1.0kbits/s speed=0.0229x elapsed=0:03:21.38    \nframe=  234 fps=1.2 q=32.0 size=       1KiB time=00:00:04.66 bitrate=   1.0kbits/s speed=0.0231x elapsed=0:03:21.95    \nframe=  234 fps=1.2 q=32.0 size=       1KiB time=00:00:04.66 bitrate=   1.0kbits/s speed=0.023x elapsed=0:03:22.50    \nframe=  235 fps=1.2 q=30.0 size=       1KiB time=00:00:04.68 bitrate=   1.0kbits/s speed=0.023x elapsed=0:03:23.04    \nframe=  235 fps=1.2 q=30.0 size=       1KiB time=00:00:04.68 bitrate=   1.0kbits/s speed=0.023x elapsed=0:03:23.56    \nframe=  236 fps=1.2 q=30.0 size=       1KiB time=00:00:04.70 bitrate=   1.0kbits/s speed=0.023x elapsed=0:03:24.07    \nframe=  236 fps=1.2 q=30.0 size=       1KiB time=00:00:04.70 bitrate=   1.0kbits/s speed=0.023x elapsed=0:03:24.63    \nframe=  238 fps=1.2 q=32.0 size=       1KiB time=00:00:04.74 bitrate=   0.9kbits/s speed=0.0231x elapsed=0:03:25.17    \nframe=  240 fps=1.2 q=32.0 size=       1KiB time=00:00:04.78 bitrate=   0.9kbits/s speed=0.0232x elapsed=0:03:25.70    \nframe=  240 fps=1.2 q=32.0 size=       1KiB time=00:00:04.78 bitrate=   0.9kbits/s speed=0.0232x elapsed=0:03:26.26    \nframe=  241 fps=1.2 q=15.0 size=       1KiB time=00:00:04.78 bitrate=   0.9kbits/s speed=0.0231x elapsed=0:03:26.83    \nframe=  241 fps=1.2 q=15.0 size=       1KiB time=00:00:04.80 bitrate=   0.9kbits/s speed=0.0231x elapsed=0:03:27.38    \nframe=  242 fps=1.2 q=33.0 size=       1KiB time=00:00:04.82 bitrate=   0.9kbits/s speed=0.0232x elapsed=0:03:27.90    \nframe=  243 fps=1.2 q=32.0 size=       1KiB time=00:00:04.84 bitrate=   0.9kbits/s speed=0.0232x elapsed=0:03:28.49    \nframe=  243 fps=1.2 q=32.0 size=       1KiB time=00:00:04.84 bitrate=   0.9kbits/s speed=0.0231x elapsed=0:03:29.13    \nframe=  244 fps=1.2 q=33.0 size=       1KiB time=00:00:04.86 bitrate=   0.9kbits/s speed=0.0232x elapsed=0:03:29.64    \nframe=  245 fps=1.2 q=30.0 size=       1KiB time=00:00:04.88 bitrate=   0.9kbits/s speed=0.0232x elapsed=0:03:30.17    \nframe=  246 fps=1.2 q=33.0 size=       1KiB time=00:00:04.90 bitrate=   0.9kbits/s speed=0.0233x elapsed=0:03:30.74    \nframe=  246 fps=1.2 q=33.0 size=       1KiB time=00:00:04.90 bitrate=   0.9kbits/s speed=0.0232x elapsed=0:03:31.28    \nframe=  246 fps=1.2 q=33.0 size=       1KiB time=00:00:04.90 bitrate=   0.9kbits/s speed=0.0231x elapsed=0:03:31.86    \nframe=  247 fps=1.2 q=32.0 size=       1KiB time=00:00:04.92 bitrate=   0.9kbits/s speed=0.0232x elapsed=0:03:32.43    \nframe=  247 fps=1.2 q=32.0 size=       1KiB time=00:00:04.92 bitrate=   0.9kbits/s speed=0.0231x elapsed=0:03:33.01    \nframe=  247 fps=1.2 q=32.0 size=       1KiB time=00:00:04.92 bitrate=   0.9kbits/s speed=0.023x elapsed=0:03:33.56    \nframe=  249 fps=1.2 q=25.0 size=       1KiB time=00:00:04.96 bitrate=   0.9kbits/s speed=0.0232x elapsed=0:03:34.09    \nframe=  249 fps=1.2 q=25.0 size=       1KiB time=00:00:04.96 bitrate=   0.9kbits/s speed=0.0231x elapsed=0:03:34.61    \nframe=  250 fps=1.2 q=32.0 size=       1KiB time=00:00:04.98 bitrate=   0.9kbits/s speed=0.0231x elapsed=0:03:35.13    \nframe=  251 fps=1.2 q=30.0 size=       1KiB time=00:00:05.00 bitrate=   0.9kbits/s speed=0.0232x elapsed=0:03:35.68    \nframe=  251 fps=1.2 q=30.0 size=       1KiB time=00:00:05.00 bitrate=   0.9kbits/s speed=0.0231x elapsed=0:03:36.25    \nframe=  252 fps=1.2 q=30.0 size=    5120KiB time=00:00:05.02 bitrate=8355.2kbits/s speed=0.0232x elapsed=0:03:36.78    \nframe=  253 fps=1.2 q=26.0 size=    5120KiB time=00:00:05.04 bitrate=8322.0kbits/s speed=0.0232x elapsed=0:03:37.30    \nframe=  254 fps=1.2 q=33.0 size=    5120KiB time=00:00:05.06 bitrate=8289.1kbits/s speed=0.0232x elapsed=0:03:37.84    \nframe=  254 fps=1.2 q=33.0 size=    5120KiB time=00:00:05.06 bitrate=8289.1kbits/s speed=0.0232x elapsed=0:03:38.38    \nframe=  256 fps=1.2 q=33.0 size=    5120KiB time=00:00:05.10 bitrate=8224.1kbits/s speed=0.0233x elapsed=0:03:38.89    \nframe=  256 fps=1.2 q=33.0 size=    5120KiB time=00:00:05.10 bitrate=8224.1kbits/s speed=0.0232x elapsed=0:03:39.42    \nframe=  256 fps=1.2 q=33.0 size=    5120KiB time=00:00:05.10 bitrate=8224.1kbits/s speed=0.0232x elapsed=0:03:39.95    \nframe=  257 fps=1.2 q=16.0 size=    5120KiB time=00:00:05.12 bitrate=8192.0kbits/s speed=0.0232x elapsed=0:03:40.51    \nframe=  258 fps=1.2 q=34.0 size=    5120KiB time=00:00:05.14 bitrate=8160.1kbits/s speed=0.0232x elapsed=0:03:41.10    \nframe=  258 fps=1.2 q=34.0 size=    5120KiB time=00:00:05.14 bitrate=8160.1kbits/s speed=0.0232x elapsed=0:03:41.64    \nframe=  258 fps=1.2 q=34.0 size=    5120KiB time=00:00:05.14 bitrate=8160.1kbits/s speed=0.0231x elapsed=0:03:42.22    \nframe=  259 fps=1.2 q=32.0 size=    5120KiB time=00:00:05.16 bitrate=8128.5kbits/s speed=0.0232x elapsed=0:03:42.73    \nframe=  259 fps=1.2 q=32.0 size=    5120KiB time=00:00:05.16 bitrate=8128.5kbits/s speed=0.0231x elapsed=0:03:43.27    \nframe=  260 fps=1.2 q=34.0 size=    5120KiB time=00:00:05.18 bitrate=8097.1kbits/s speed=0.0231x elapsed=0:03:43.87    \nframe=  261 fps=1.2 q=28.0 size=    5120KiB time=00:00:05.18 bitrate=8097.1kbits/s speed=0.0231x elapsed=0:03:44.41    \nframe=  261 fps=1.2 q=28.0 size=    5120KiB time=00:00:05.20 bitrate=8066.0kbits/s speed=0.0231x elapsed=0:03:44.93    \nframe=  262 fps=1.2 q=34.0 size=    5120KiB time=00:00:05.22 bitrate=8035.1kbits/s speed=0.0232x elapsed=0:03:45.46    \nframe=  262 fps=1.2 q=34.0 size=    5120KiB time=00:00:05.22 bitrate=8035.1kbits/s speed=0.0231x elapsed=0:03:45.99    \nframe=  263 fps=1.2 q=32.0 size=    5120KiB time=00:00:05.24 bitrate=8004.4kbits/s speed=0.0231x elapsed=0:03:46.59    \nframe=  263 fps=1.2 q=32.0 size=    5120KiB time=00:00:05.24 bitrate=8004.4kbits/s speed=0.0231x elapsed=0:03:47.16    \nframe=  264 fps=1.2 q=34.0 size=    5120KiB time=00:00:05.26 bitrate=7974.0kbits/s speed=0.0231x elapsed=0:03:47.75    \nframe=  266 fps=1.2 q=34.0 size=    5120KiB time=00:00:05.30 bitrate=7913.8kbits/s speed=0.0232x elapsed=0:03:48.37    \nframe=  267 fps=1.2 q=32.0 size=    5120KiB time=00:00:05.32 bitrate=7884.0kbits/s speed=0.0232x elapsed=0:03:48.91    \nframe=  267 fps=1.2 q=32.0 size=    5120KiB time=00:00:05.32 bitrate=7884.0kbits/s speed=0.0232x elapsed=0:03:49.43    \nframe=  268 fps=1.2 q=31.0 size=    5120KiB time=00:00:05.34 bitrate=7854.5kbits/s speed=0.0232x elapsed=0:03:49.96    \nframe=  269 fps=1.2 q=28.0 size=    5120KiB time=00:00:05.36 bitrate=7825.2kbits/s speed=0.0232x elapsed=0:03:50.66    \nframe=  271 fps=1.2 q=31.0 size=    5120KiB time=00:00:05.38 bitrate=7796.1kbits/s speed=0.0233x elapsed=0:03:51.21    \nframe=  271 fps=1.2 q=31.0 size=    5120KiB time=00:00:05.40 bitrate=7767.2kbits/s speed=0.0233x elapsed=0:03:51.80    \nframe=  274 fps=1.2 q=34.0 size=    5120KiB time=00:00:05.46 bitrate=7681.9kbits/s speed=0.0235x elapsed=0:03:52.31    \nframe=  274 fps=1.2 q=34.0 size=    5120KiB time=00:00:05.46 bitrate=7681.9kbits/s speed=0.0234x elapsed=0:03:52.91    \nframe=  275 fps=1.2 q=33.0 size=    5120KiB time=00:00:05.48 bitrate=7653.8kbits/s speed=0.0235x elapsed=0:03:53.45    \nframe=  276 fps=1.2 q=26.0 size=    5120KiB time=00:00:05.50 bitrate=7626.0kbits/s speed=0.0235x elapsed=0:03:54.00    \nframe=  277 fps=1.2 q=31.0 size=    5120KiB time=00:00:05.52 bitrate=7598.4kbits/s speed=0.0235x elapsed=0:03:54.54    \nframe=  278 fps=1.2 q=32.0 size=    5120KiB time=00:00:05.54 bitrate=7570.9kbits/s speed=0.0236x elapsed=0:03:55.10    \nframe=  278 fps=1.2 q=32.0 size=    5120KiB time=00:00:05.54 bitrate=7570.9kbits/s speed=0.0235x elapsed=0:03:55.61    \nframe=  279 fps=1.2 q=29.0 size=    5120KiB time=00:00:05.56 bitrate=7543.7kbits/s speed=0.0235x elapsed=0:03:56.16    \nframe=  280 fps=1.2 q=32.0 size=    5120KiB time=00:00:05.58 bitrate=7516.7kbits/s speed=0.0236x elapsed=0:03:56.70    \nframe=  280 fps=1.2 q=32.0 size=    5120KiB time=00:00:05.58 bitrate=7516.7kbits/s speed=0.0235x elapsed=0:03:57.23    \nframe=  282 fps=1.2 q=34.0 size=    5120KiB time=00:00:05.62 bitrate=7463.2kbits/s speed=0.0236x elapsed=0:03:57.76    \nframe=  283 fps=1.2 q=32.0 size=    5120KiB time=00:00:05.62 bitrate=7463.2kbits/s speed=0.0236x elapsed=0:03:58.30    \nframe=  283 fps=1.2 q=32.0 size=    5120KiB time=00:00:05.64 bitrate=7436.7kbits/s speed=0.0236x elapsed=0:03:58.88    \nframe=  283 fps=1.2 q=32.0 size=    5120KiB time=00:00:05.64 bitrate=7436.7kbits/s speed=0.0236x elapsed=0:03:59.41    \nframe=  283 fps=1.2 q=32.0 size=    5120KiB time=00:00:05.64 bitrate=7436.7kbits/s speed=0.0235x elapsed=0:03:59.96    \nframe=  285 fps=1.2 q=28.0 size=    5120KiB time=00:00:05.68 bitrate=7384.3kbits/s speed=0.0236x elapsed=0:04:00.48    \nframe=  286 fps=1.2 q=34.0 size=    5120KiB time=00:00:05.70 bitrate=7358.4kbits/s speed=0.0236x elapsed=0:04:01.06    \nframe=  287 fps=1.2 q=30.0 size=    5120KiB time=00:00:05.72 bitrate=7332.7kbits/s speed=0.0237x elapsed=0:04:01.61    \nframe=  288 fps=1.2 q=31.0 size=    5120KiB time=00:00:05.74 bitrate=7307.1kbits/s speed=0.0237x elapsed=0:04:02.17    \nframe=  288 fps=1.2 q=31.0 size=    5120KiB time=00:00:05.74 bitrate=7307.1kbits/s speed=0.0237x elapsed=0:04:02.68    \nframe=  289 fps=1.2 q=17.0 size=    5120KiB time=00:00:05.76 bitrate=7281.8kbits/s speed=0.0237x elapsed=0:04:03.22    \nframe=  290 fps=1.2 q=34.0 size=    5120KiB time=00:00:05.78 bitrate=7256.6kbits/s speed=0.0237x elapsed=0:04:03.77    \nframe=  292 fps=1.2 q=33.0 size=    5120KiB time=00:00:05.82 bitrate=7206.7kbits/s speed=0.0238x elapsed=0:04:04.34    \nframe=  292 fps=1.2 q=33.0 size=    5120KiB time=00:00:05.82 bitrate=7206.7kbits/s speed=0.0238x elapsed=0:04:04.86    \nframe=  293 fps=1.2 q=30.0 size=    5120KiB time=00:00:05.84 bitrate=7182.0kbits/s speed=0.0238x elapsed=0:04:05.41    \nframe=  293 fps=1.2 q=30.0 size=    5120KiB time=00:00:05.84 bitrate=7182.0kbits/s speed=0.0237x elapsed=0:04:05.92    \nframe=  294 fps=1.2 q=31.0 size=    5120KiB time=00:00:05.86 bitrate=7157.5kbits/s speed=0.0238x elapsed=0:04:06.46    \nframe=  296 fps=1.2 q=26.0 size=    5120KiB time=00:00:05.90 bitrate=7109.0kbits/s speed=0.0239x elapsed=0:04:06.99    \nframe=  297 fps=1.2 q=25.0 size=    5120KiB time=00:00:05.92 bitrate=7085.0kbits/s speed=0.0239x elapsed=0:04:07.54    \nframe=  297 fps=1.2 q=25.0 size=    5120KiB time=00:00:05.92 bitrate=7085.0kbits/s speed=0.0239x elapsed=0:04:08.07    \nframe=  297 fps=1.2 q=25.0 size=    5120KiB time=00:00:05.92 bitrate=7085.0kbits/s speed=0.0238x elapsed=0:04:08.60    \nframe=  298 fps=1.2 q=32.0 size=    5120KiB time=00:00:05.94 bitrate=7061.1kbits/s speed=0.0238x elapsed=0:04:09.15    \nframe=  298 fps=1.2 q=32.0 size=    5120KiB time=00:00:05.94 bitrate=7061.1kbits/s speed=0.0238x elapsed=0:04:09.68    \nframe=  300 fps=1.2 q=30.0 size=    5120KiB time=00:00:05.98 bitrate=7013.9kbits/s speed=0.0239x elapsed=0:04:10.27    \nframe=  301 fps=1.2 q=26.0 size=    5120KiB time=00:00:06.00 bitrate=6990.5kbits/s speed=0.0239x elapsed=0:04:10.82    \nframe=  301 fps=1.2 q=26.0 size=    5120KiB time=00:00:06.00 bitrate=6990.5kbits/s speed=0.0239x elapsed=0:04:11.36    \nframe=  301 fps=1.2 q=26.0 size=    5120KiB time=00:00:06.00 bitrate=6990.5kbits/s speed=0.0238x elapsed=0:04:11.88    \nframe=  303 fps=1.2 q=29.0 size=    5120KiB time=00:00:06.04 bitrate=6944.2kbits/s speed=0.0239x elapsed=0:04:12.42    \nframe=  303 fps=1.2 q=29.0 size=    5120KiB time=00:00:06.04 bitrate=6944.2kbits/s speed=0.0239x elapsed=0:04:12.93    \nframe=  305 fps=1.2 q=15.0 size=    5120KiB time=00:00:06.08 bitrate=6898.5kbits/s speed=0.024x elapsed=0:04:13.51    \nframe=  305 fps=1.2 q=15.0 size=    5120KiB time=00:00:06.08 bitrate=6898.5kbits/s speed=0.0239x elapsed=0:04:14.09    \nframe=  305 fps=1.2 q=15.0 size=    5120KiB time=00:00:06.08 bitrate=6898.5kbits/s speed=0.0239x elapsed=0:04:14.63    \nframe=  306 fps=1.2 q=32.0 size=    5120KiB time=00:00:06.10 bitrate=6875.9kbits/s speed=0.0239x elapsed=0:04:15.14    \nframe=  306 fps=1.2 q=32.0 size=    5120KiB time=00:00:06.10 bitrate=6875.9kbits/s speed=0.0239x elapsed=0:04:15.71    \nframe=  308 fps=1.2 q=32.0 size=    5120KiB time=00:00:06.14 bitrate=6831.1kbits/s speed=0.024x elapsed=0:04:16.22    \nframe=  308 fps=1.2 q=32.0 size=    5120KiB time=00:00:06.14 bitrate=6831.1kbits/s speed=0.0239x elapsed=0:04:16.75    \nframe=  309 fps=1.2 q=29.0 size=    5120KiB time=00:00:06.16 bitrate=6808.9kbits/s speed=0.0239x elapsed=0:04:17.37    \nframe=  309 fps=1.2 q=29.0 size=    5120KiB time=00:00:06.16 bitrate=6808.9kbits/s speed=0.0239x elapsed=0:04:17.89    \nframe=  309 fps=1.2 q=29.0 size=    5120KiB time=00:00:06.16 bitrate=6808.9kbits/s speed=0.0238x elapsed=0:04:18.46    \nframe=  310 fps=1.2 q=32.0 size=    5120KiB time=00:00:06.18 bitrate=6786.9kbits/s speed=0.0239x elapsed=0:04:18.98    \nframe=  311 fps=1.2 q=30.0 size=    5120KiB time=00:00:06.18 bitrate=6786.9kbits/s speed=0.0238x elapsed=0:04:19.51    \nframe=  312 fps=1.2 q=29.0 size=    5120KiB time=00:00:06.22 bitrate=6743.3kbits/s speed=0.0239x elapsed=0:04:20.07    \nframe=  313 fps=1.2 q=25.0 size=    5120KiB time=00:00:06.24 bitrate=6721.6kbits/s speed=0.0239x elapsed=0:04:20.59    \nframe=  313 fps=1.2 q=25.0 size=    5120KiB time=00:00:06.24 bitrate=6721.6kbits/s speed=0.0239x elapsed=0:04:21.13    \nframe=  313 fps=1.2 q=25.0 size=    5120KiB time=00:00:06.24 bitrate=6721.6kbits/s speed=0.0238x elapsed=0:04:21.64    \nframe=  313 fps=1.2 q=25.0 size=    5120KiB time=00:00:06.24 bitrate=6721.6kbits/s speed=0.0238x elapsed=0:04:22.16    \nframe=  313 fps=1.2 q=25.0 size=    5120KiB time=00:00:06.24 bitrate=6721.6kbits/s speed=0.0238x elapsed=0:04:22.67    \nframe=  314 fps=1.2 q=32.0 size=    5120KiB time=00:00:06.26 bitrate=6700.2kbits/s speed=0.0238x elapsed=0:04:23.18    \nframe=  316 fps=1.2 q=33.0 size=    5120KiB time=00:00:06.30 bitrate=6657.6kbits/s speed=0.0239x elapsed=0:04:23.71    \nframe=  316 fps=1.2 q=33.0 size=    5120KiB time=00:00:06.30 bitrate=6657.6kbits/s speed=0.0238x elapsed=0:04:24.24    \nframe=  317 fps=1.2 q=29.0 size=    5120KiB time=00:00:06.32 bitrate=6636.6kbits/s speed=0.0239x elapsed=0:04:24.78    \nframe=  318 fps=1.2 q=33.0 size=    5120KiB time=00:00:06.34 bitrate=6615.6kbits/s speed=0.0239x elapsed=0:04:25.30    \nframe=  320 fps=1.2 q=33.0 size=    5120KiB time=00:00:06.38 bitrate=6574.1kbits/s speed=0.024x elapsed=0:04:25.85    \nframe=  321 fps=1.2 q=24.0 size=    5120KiB time=00:00:06.40 bitrate=6553.6kbits/s speed=0.024x elapsed=0:04:26.36    \nframe=  321 fps=1.2 q=24.0 size=    5120KiB time=00:00:06.40 bitrate=6553.6kbits/s speed=0.024x elapsed=0:04:26.87    \nframe=  322 fps=1.2 q=14.0 size=    5120KiB time=00:00:06.42 bitrate=6533.2kbits/s speed=0.024x elapsed=0:04:27.41    \nframe=  322 fps=1.2 q=14.0 size=    5120KiB time=00:00:06.42 bitrate=6533.2kbits/s speed=0.024x elapsed=0:04:27.94    \nframe=  323 fps=1.2 q=33.0 size=    6400KiB time=00:00:06.44 bitrate=8141.1kbits/s speed=0.024x elapsed=0:04:28.53    \nframe=  324 fps=1.2 q=32.0 size=    6400KiB time=00:00:06.46 bitrate=8115.9kbits/s speed=0.024x elapsed=0:04:29.09    \nframe=  326 fps=1.2 q=30.0 size=    6400KiB time=00:00:06.50 bitrate=8066.0kbits/s speed=0.0241x elapsed=0:04:29.68    \nframe=  326 fps=1.2 q=30.0 size=    6400KiB time=00:00:06.50 bitrate=8066.0kbits/s speed=0.0241x elapsed=0:04:30.24    \nframe=  327 fps=1.2 q=32.0 size=    6400KiB time=00:00:06.52 bitrate=8041.2kbits/s speed=0.0241x elapsed=0:04:30.74    \nframe=  328 fps=1.2 q=30.0 size=    6400KiB time=00:00:06.54 bitrate=8016.6kbits/s speed=0.0241x elapsed=0:04:31.32    \nframe=  330 fps=1.2 q=25.0 size=    6400KiB time=00:00:06.58 bitrate=7967.9kbits/s speed=0.0242x elapsed=0:04:31.85    \nframe=  330 fps=1.2 q=25.0 size=    6400KiB time=00:00:06.58 bitrate=7967.9kbits/s speed=0.0242x elapsed=0:04:32.39    \nframe=  331 fps=1.2 q=32.0 size=    6400KiB time=00:00:06.60 bitrate=7943.8kbits/s speed=0.0242x elapsed=0:04:32.95    \nframe=  332 fps=1.2 q=30.0 size=    6400KiB time=00:00:06.62 bitrate=7919.8kbits/s speed=0.0242x elapsed=0:04:33.47    \nframe=  334 fps=1.2 q=26.0 size=    6400KiB time=00:00:06.66 bitrate=7872.2kbits/s speed=0.0243x elapsed=0:04:33.99    \nframe=  334 fps=1.2 q=26.0 size=    6400KiB time=00:00:06.66 bitrate=7872.2kbits/s speed=0.0243x elapsed=0:04:34.55    \nframe=  334 fps=1.2 q=26.0 size=    6400KiB time=00:00:06.66 bitrate=7872.2kbits/s speed=0.0242x elapsed=0:04:35.09    \nframe=  335 fps=1.2 q=31.0 size=    6400KiB time=00:00:06.68 bitrate=7848.6kbits/s speed=0.0242x elapsed=0:04:35.64    \nframe=  336 fps=1.2 q=29.0 size=    6400KiB time=00:00:06.70 bitrate=7825.2kbits/s speed=0.0243x elapsed=0:04:36.18    \nframe=  336 fps=1.2 q=29.0 size=    6400KiB time=00:00:06.70 bitrate=7825.2kbits/s speed=0.0242x elapsed=0:04:36.74    \nframe=  337 fps=1.2 q=31.0 size=    6400KiB time=00:00:06.72 bitrate=7801.9kbits/s speed=0.0242x elapsed=0:04:37.27    \nframe=  337 fps=1.2 q=31.0 size=    6400KiB time=00:00:06.72 bitrate=7801.9kbits/s speed=0.0242x elapsed=0:04:37.81    \nframe=  337 fps=1.2 q=31.0 size=    6400KiB time=00:00:06.72 bitrate=7801.9kbits/s speed=0.0241x elapsed=0:04:38.33    \nframe=  337 fps=1.2 q=31.0 size=    6400KiB time=00:00:06.72 bitrate=7801.9kbits/s speed=0.0241x elapsed=0:04:38.91    \nframe=  338 fps=1.2 q=16.0 size=    6400KiB time=00:00:06.74 bitrate=7778.8kbits/s speed=0.0241x elapsed=0:04:39.43    \nframe=  338 fps=1.2 q=16.0 size=    6400KiB time=00:00:06.74 bitrate=7778.8kbits/s speed=0.0241x elapsed=0:04:39.96    \nframe=  338 fps=1.2 q=16.0 size=    6400KiB time=00:00:06.74 bitrate=7778.8kbits/s speed=0.024x elapsed=0:04:40.49    \nframe=  340 fps=1.2 q=31.0 size=    6400KiB time=00:00:06.78 bitrate=7732.9kbits/s speed=0.0241x elapsed=0:04:41.02    \nframe=  341 fps=1.2 q=32.0 size=    6400KiB time=00:00:06.80 bitrate=7710.1kbits/s speed=0.0241x elapsed=0:04:41.57    \nframe=  342 fps=1.2 q=29.0 size=    6400KiB time=00:00:06.82 bitrate=7687.5kbits/s speed=0.0242x elapsed=0:04:42.09    \nframe=  342 fps=1.2 q=29.0 size=    6400KiB time=00:00:06.82 bitrate=7687.5kbits/s speed=0.0241x elapsed=0:04:42.61    \nframe=  343 fps=1.2 q=33.0 size=    6400KiB time=00:00:06.84 bitrate=7665.0kbits/s speed=0.0242x elapsed=0:04:43.16    \nframe=  343 fps=1.2 q=33.0 size=    6400KiB time=00:00:06.84 bitrate=7665.0kbits/s speed=0.0241x elapsed=0:04:43.72    \nframe=  345 fps=1.2 q=33.0 size=    6400KiB time=00:00:06.88 bitrate=7620.5kbits/s speed=0.0242x elapsed=0:04:44.24    \nframe=  347 fps=1.2 q=33.0 size=    6400KiB time=00:00:06.92 bitrate=7576.4kbits/s speed=0.0243x elapsed=0:04:44.77    \nframe=  348 fps=1.2 q=32.0 size=    6400KiB time=00:00:06.94 bitrate=7554.6kbits/s speed=0.0243x elapsed=0:04:45.29    \nframe=  349 fps=1.2 q=33.0 size=    6400KiB time=00:00:06.96 bitrate=7532.9kbits/s speed=0.0243x elapsed=0:04:45.83    \nframe=  349 fps=1.2 q=33.0 size=    6400KiB time=00:00:06.96 bitrate=7532.9kbits/s speed=0.0243x elapsed=0:04:46.34    \nframe=  350 fps=1.2 q=29.0 size=    6400KiB time=00:00:06.98 bitrate=7511.3kbits/s speed=0.0243x elapsed=0:04:46.85    \nframe=  350 fps=1.2 q=29.0 size=    6400KiB time=00:00:06.98 bitrate=7511.3kbits/s speed=0.0243x elapsed=0:04:47.37    \nframe=  351 fps=1.2 q=32.0 size=    6400KiB time=00:00:07.00 bitrate=7489.8kbits/s speed=0.0243x elapsed=0:04:47.93    \nframe=  352 fps=1.2 q=29.0 size=    6400KiB time=00:00:07.02 bitrate=7468.5kbits/s speed=0.0243x elapsed=0:04:48.49    \nframe=  353 fps=1.2 q=32.0 size=    6400KiB time=00:00:07.04 bitrate=7447.3kbits/s speed=0.0244x elapsed=0:04:49.03    \nframe=  353 fps=1.2 q=32.0 size=    6400KiB time=00:00:07.04 bitrate=7447.3kbits/s speed=0.0243x elapsed=0:04:49.64    \nframe=  354 fps=1.2 q=15.0 size=    6400KiB time=00:00:07.06 bitrate=7426.2kbits/s speed=0.0243x elapsed=0:04:50.15    \nframe=  354 fps=1.2 q=15.0 size=    6400KiB time=00:00:07.06 bitrate=7426.2kbits/s speed=0.0243x elapsed=0:04:50.73    \nframe=  354 fps=1.2 q=15.0 size=    6400KiB time=00:00:07.06 bitrate=7426.2kbits/s speed=0.0242x elapsed=0:04:51.23    \nframe=  355 fps=1.2 q=33.0 size=    6400KiB time=00:00:07.08 bitrate=7405.2kbits/s speed=0.0243x elapsed=0:04:51.75    \nframe=  357 fps=1.2 q=33.0 size=    6400KiB time=00:00:07.12 bitrate=7363.6kbits/s speed=0.0244x elapsed=0:04:52.27    \nframe=  358 fps=1.2 q=29.0 size=    6400KiB time=00:00:07.14 bitrate=7343.0kbits/s speed=0.0244x elapsed=0:04:52.80    \nframe=  358 fps=1.2 q=29.0 size=    6400KiB time=00:00:07.14 bitrate=7343.0kbits/s speed=0.0243x elapsed=0:04:53.33    \nframe=  359 fps=1.2 q=31.0 size=    6400KiB time=00:00:07.16 bitrate=7322.5kbits/s speed=0.0244x elapsed=0:04:53.89    \nframe=  360 fps=1.2 q=27.0 size=    6400KiB time=00:00:07.18 bitrate=7302.1kbits/s speed=0.0244x elapsed=0:04:54.46    \nframe=  361 fps=1.2 q=31.0 size=    6400KiB time=00:00:07.20 bitrate=7281.8kbits/s speed=0.0244x elapsed=0:04:55.01    \nframe=  363 fps=1.2 q=32.0 size=    6400KiB time=00:00:07.24 bitrate=7241.5kbits/s speed=0.0245x elapsed=0:04:55.53    \nframe=  364 fps=1.2 q=30.0 size=    6400KiB time=00:00:07.24 bitrate=7241.5kbits/s speed=0.0244x elapsed=0:04:56.15    \nframe=  365 fps=1.2 q=30.0 size=    6400KiB time=00:00:07.28 bitrate=7201.8kbits/s speed=0.0245x elapsed=0:04:56.90    \nframe=  366 fps=1.2 q=26.0 size=    6400KiB time=00:00:07.30 bitrate=7182.0kbits/s speed=0.0245x elapsed=0:04:57.65    \nframe=  367 fps=1.2 q=33.0 size=    6400KiB time=00:00:07.32 bitrate=7162.4kbits/s speed=0.0245x elapsed=0:04:58.43    \nframe=  369 fps=1.2 q=33.0 size=    6400KiB time=00:00:07.34 bitrate=7142.9kbits/s speed=0.0245x elapsed=0:04:59.31    \nframe=  369 fps=1.2 q=33.0 size=    6400KiB time=00:00:07.36 bitrate=7123.5kbits/s speed=0.0245x elapsed=0:05:00.27    \nframe=  370 fps=1.2 q=13.0 size=    6400KiB time=00:00:07.36 bitrate=7123.5kbits/s speed=0.0244x elapsed=0:05:01.25    \nframe=  370 fps=1.2 q=13.0 size=    6400KiB time=00:00:07.38 bitrate=7104.2kbits/s speed=0.0244x elapsed=0:05:02.07    \nframe=  371 fps=1.2 q=34.0 size=    6400KiB time=00:00:07.40 bitrate=7085.0kbits/s speed=0.0245x elapsed=0:05:02.64    \nframe=  371 fps=1.2 q=34.0 size=    6400KiB time=00:00:07.40 bitrate=7085.0kbits/s speed=0.0244x elapsed=0:05:03.18    \nframe=  373 fps=1.2 q=34.0 size=    6400KiB time=00:00:07.44 bitrate=7046.9kbits/s speed=0.0245x elapsed=0:05:03.71    \nframe=  373 fps=1.2 q=34.0 size=    6400KiB time=00:00:07.44 bitrate=7046.9kbits/s speed=0.0245x elapsed=0:05:04.26    \nframe=  374 fps=1.2 q=30.0 size=    6400KiB time=00:00:07.46 bitrate=7028.0kbits/s speed=0.0245x elapsed=0:05:04.78    \nframe=  375 fps=1.2 q=32.0 size=    6400KiB time=00:00:07.48 bitrate=7009.2kbits/s speed=0.0245x elapsed=0:05:05.36    \nframe=  375 fps=1.2 q=32.0 size=    6400KiB time=00:00:07.48 bitrate=7009.2kbits/s speed=0.0245x elapsed=0:05:05.89    \nframe=  376 fps=1.2 q=28.0 size=    6400KiB time=00:00:07.50 bitrate=6990.5kbits/s speed=0.0245x elapsed=0:05:06.43    \nframe=  378 fps=1.2 q=24.0 size=    6400KiB time=00:00:07.54 bitrate=6953.4kbits/s speed=0.0246x elapsed=0:05:06.98    \nframe=  379 fps=1.2 q=33.0 size=    6400KiB time=00:00:07.56 bitrate=6935.0kbits/s speed=0.0246x elapsed=0:05:07.54    \nframe=  380 fps=1.2 q=31.0 size=    6400KiB time=00:00:07.58 bitrate=6916.7kbits/s speed=0.0246x elapsed=0:05:08.07    \nframe=  380 fps=1.2 q=31.0 size=    6400KiB time=00:00:07.58 bitrate=6916.7kbits/s speed=0.0246x elapsed=0:05:08.64    \nframe=  404 fps=1.3 q=33.0 size=    6400KiB time=00:00:08.06 bitrate=6504.8kbits/s speed=0.0261x elapsed=0:05:09.16    \nframe=  406 fps=1.3 q=31.0 size=    6400KiB time=00:00:08.10 bitrate=6472.7kbits/s speed=0.0262x elapsed=0:05:09.67    \nframe=  406 fps=1.3 q=31.0 size=    6400KiB time=00:00:08.10 bitrate=6472.7kbits/s speed=0.0261x elapsed=0:05:10.22    \nframe=  406 fps=1.3 q=31.0 size=    6400KiB time=00:00:08.10 bitrate=6472.7kbits/s speed=0.0261x elapsed=0:05:10.77    \nframe=  408 fps=1.3 q=33.0 size=    6400KiB time=00:00:08.14 bitrate=6440.9kbits/s speed=0.0261x elapsed=0:05:11.34    \nframe=  408 fps=1.3 q=33.0 size=    6400KiB time=00:00:08.14 bitrate=6440.9kbits/s speed=0.0261x elapsed=0:05:11.88    \nframe=  410 fps=1.3 q=26.0 size=    6400KiB time=00:00:08.18 bitrate=6409.4kbits/s speed=0.0262x elapsed=0:05:12.41    \nframe=  410 fps=1.3 q=26.0 size=    6400KiB time=00:00:08.18 bitrate=6409.4kbits/s speed=0.0261x elapsed=0:05:12.92    \nframe=  410 fps=1.3 q=26.0 size=    6400KiB time=00:00:08.18 bitrate=6409.4kbits/s speed=0.0261x elapsed=0:05:13.43    \nframe=  410 fps=1.3 q=26.0 size=    6400KiB time=00:00:08.18 bitrate=6409.4kbits/s speed=0.0261x elapsed=0:05:13.95    \nframe=  410 fps=1.3 q=26.0 size=    6400KiB time=00:00:08.18 bitrate=6409.4kbits/s speed=0.026x elapsed=0:05:14.51    \nframe=  410 fps=1.3 q=26.0 size=    6400KiB time=00:00:08.18 bitrate=6409.4kbits/s speed=0.026x elapsed=0:05:15.03    \nframe=  410 fps=1.3 q=26.0 size=    6400KiB time=00:00:08.18 bitrate=6409.4kbits/s speed=0.0259x elapsed=0:05:15.59    \nframe=  412 fps=1.3 q=32.0 size=    6400KiB time=00:00:08.22 bitrate=6378.2kbits/s speed=0.026x elapsed=0:05:16.14    \nframe=  412 fps=1.3 q=32.0 size=    6400KiB time=00:00:08.22 bitrate=6378.2kbits/s speed=0.026x elapsed=0:05:16.65    \nframe=  414 fps=1.3 q=28.0 size=    6400KiB time=00:00:08.26 bitrate=6347.3kbits/s speed=0.026x elapsed=0:05:17.17    \nframe=  414 fps=1.3 q=28.0 size=    6400KiB time=00:00:08.26 bitrate=6347.3kbits/s speed=0.026x elapsed=0:05:17.74    \nframe=  414 fps=1.3 q=28.0 size=    6400KiB time=00:00:08.26 bitrate=6347.3kbits/s speed=0.0259x elapsed=0:05:18.32    \nframe=  414 fps=1.3 q=28.0 size=    6400KiB time=00:00:08.26 bitrate=6347.3kbits/s speed=0.0259x elapsed=0:05:19.02    \nframe=  416 fps=1.3 q=31.0 size=    6400KiB time=00:00:08.30 bitrate=6316.7kbits/s speed=0.026x elapsed=0:05:19.56    \nframe=  418 fps=1.3 q=17.0 size=    6400KiB time=00:00:08.34 bitrate=6286.4kbits/s speed=0.0261x elapsed=0:05:20.08    \nframe=  418 fps=1.3 q=17.0 size=    6400KiB time=00:00:08.34 bitrate=6286.4kbits/s speed=0.026x elapsed=0:05:20.62    \nframe=  418 fps=1.3 q=17.0 size=    6400KiB time=00:00:08.34 bitrate=6286.4kbits/s speed=0.026x elapsed=0:05:21.19    \nframe=  420 fps=1.3 q=33.0 size=    6400KiB time=00:00:08.38 bitrate=6256.4kbits/s speed=0.026x elapsed=0:05:21.75    \nframe=  422 fps=1.3 q=31.0 size=    6400KiB time=00:00:08.42 bitrate=6226.7kbits/s speed=0.0261x elapsed=0:05:22.29    \nframe=  422 fps=1.3 q=31.0 size=    6400KiB time=00:00:08.42 bitrate=6226.7kbits/s speed=0.0261x elapsed=0:05:22.84    \nframe=  422 fps=1.3 q=31.0 size=    6400KiB time=00:00:08.42 bitrate=6226.7kbits/s speed=0.026x elapsed=0:05:23.36    \nframe=  422 fps=1.3 q=31.0 size=    6400KiB time=00:00:08.42 bitrate=6226.7kbits/s speed=0.026x elapsed=0:05:23.91    \nframe=  424 fps=1.3 q=33.0 size=    6400KiB time=00:00:08.42 bitrate=6226.7kbits/s speed=0.0259x elapsed=0:05:24.48    \nframe=  426 fps=1.3 q=27.0 size=    6400KiB time=00:00:08.50 bitrate=6168.1kbits/s speed=0.0262x elapsed=0:05:25.01    \nframe=  426 fps=1.3 q=27.0 size=    6400KiB time=00:00:08.50 bitrate=6168.1kbits/s speed=0.0261x elapsed=0:05:25.57    \nframe=  426 fps=1.3 q=27.0 size=    6400KiB time=00:00:08.50 bitrate=6168.1kbits/s speed=0.0261x elapsed=0:05:26.14    \nframe=  426 fps=1.3 q=27.0 size=    6400KiB time=00:00:08.50 bitrate=6168.1kbits/s speed=0.026x elapsed=0:05:26.69    \nframe=  426 fps=1.3 q=27.0 size=    6400KiB time=00:00:08.50 bitrate=6168.1kbits/s speed=0.026x elapsed=0:05:27.22    \nframe=  426 fps=1.3 q=27.0 size=    6400KiB time=00:00:08.50 bitrate=6168.1kbits/s speed=0.0259x elapsed=0:05:27.73    \nframe=  426 fps=1.3 q=27.0 size=    6400KiB time=00:00:08.50 bitrate=6168.1kbits/s speed=0.0259x elapsed=0:05:28.30    \nframe=  428 fps=1.3 q=32.0 size=    6400KiB time=00:00:08.54 bitrate=6139.2kbits/s speed=0.026x elapsed=0:05:28.85    \nframe=  428 fps=1.3 q=32.0 size=    6400KiB time=00:00:08.54 bitrate=6139.2kbits/s speed=0.0259x elapsed=0:05:29.44    \nframe=  430 fps=1.3 q=28.0 size=    6400KiB time=00:00:08.58 bitrate=6110.6kbits/s speed=0.026x elapsed=0:05:30.04    \nframe=  430 fps=1.3 q=28.0 size=    6400KiB time=00:00:08.58 bitrate=6110.6kbits/s speed=0.0259x elapsed=0:05:30.66    \nframe=  430 fps=1.3 q=28.0 size=    6400KiB time=00:00:08.58 bitrate=6110.6kbits/s speed=0.0259x elapsed=0:05:31.20    \nframe=  430 fps=1.3 q=28.0 size=    6400KiB time=00:00:08.58 bitrate=6110.6kbits/s speed=0.0259x elapsed=0:05:31.75    \nframe=  430 fps=1.3 q=28.0 size=    6400KiB time=00:00:08.58 bitrate=6110.6kbits/s speed=0.0258x elapsed=0:05:32.29    \nframe=  432 fps=1.3 q=30.0 size=    6400KiB time=00:00:08.62 bitrate=6082.2kbits/s speed=0.0259x elapsed=0:05:32.84    \nframe=  432 fps=1.3 q=30.0 size=    6400KiB time=00:00:08.62 bitrate=6082.2kbits/s speed=0.0259x elapsed=0:05:33.38    \nframe=  434 fps=1.3 q=19.0 size=    6400KiB time=00:00:08.66 bitrate=6054.1kbits/s speed=0.0259x elapsed=0:05:33.90    \nframe=  434 fps=1.3 q=19.0 size=    6400KiB time=00:00:08.66 bitrate=6054.1kbits/s speed=0.0259x elapsed=0:05:34.44    \nframe=  434 fps=1.3 q=19.0 size=    6400KiB time=00:00:08.66 bitrate=6054.1kbits/s speed=0.0259x elapsed=0:05:34.96    \nframe=  434 fps=1.3 q=19.0 size=    6400KiB time=00:00:08.66 bitrate=6054.1kbits/s speed=0.0258x elapsed=0:05:35.49    \nframe=  434 fps=1.3 q=19.0 size=    6400KiB time=00:00:08.66 bitrate=6054.1kbits/s speed=0.0258x elapsed=0:05:36.03    \nframe=  436 fps=1.3 q=32.0 size=    6400KiB time=00:00:08.70 bitrate=6026.3kbits/s speed=0.0258x elapsed=0:05:36.56    \nframe=  438 fps=1.3 q=30.0 size=    6400KiB time=00:00:08.74 bitrate=5998.7kbits/s speed=0.0259x elapsed=0:05:37.08    \nframe=  438 fps=1.3 q=30.0 size=    6400KiB time=00:00:08.74 bitrate=5998.7kbits/s speed=0.0259x elapsed=0:05:37.63    \nframe=  438 fps=1.3 q=30.0 size=    6400KiB time=00:00:08.74 bitrate=5998.7kbits/s speed=0.0258x elapsed=0:05:38.17    \nframe=  438 fps=1.3 q=30.0 size=    6400KiB time=00:00:08.74 bitrate=5998.7kbits/s speed=0.0258x elapsed=0:05:38.72    \nframe=  440 fps=1.3 q=32.0 size=    6400KiB time=00:00:08.78 bitrate=5971.4kbits/s speed=0.0259x elapsed=0:05:39.24    \nframe=  440 fps=1.3 q=32.0 size=    6400KiB time=00:00:08.78 bitrate=5971.4kbits/s speed=0.0258x elapsed=0:05:39.76    \nframe=  442 fps=1.3 q=26.0 size=    6400KiB time=00:00:08.82 bitrate=5944.3kbits/s speed=0.0259x elapsed=0:05:40.33    \nframe=  442 fps=1.3 q=26.0 size=    6400KiB time=00:00:08.82 bitrate=5944.3kbits/s speed=0.0259x elapsed=0:05:40.86    \nframe=  442 fps=1.3 q=26.0 size=    6400KiB time=00:00:08.82 bitrate=5944.3kbits/s speed=0.0258x elapsed=0:05:41.37    \nframe=  442 fps=1.3 q=26.0 size=    6400KiB time=00:00:08.82 bitrate=5944.3kbits/s speed=0.0258x elapsed=0:05:41.89    \nframe=  442 fps=1.3 q=26.0 size=    6400KiB time=00:00:08.82 bitrate=5944.3kbits/s speed=0.0258x elapsed=0:05:42.47    \nframe=  442 fps=1.3 q=26.0 size=    6400KiB time=00:00:08.82 bitrate=5944.3kbits/s speed=0.0257x elapsed=0:05:42.99    \nframe=  444 fps=1.3 q=31.0 size=    6400KiB time=00:00:08.86 bitrate=5917.5kbits/s speed=0.0258x elapsed=0:05:43.55    \nframe=  444 fps=1.3 q=31.0 size=    6400KiB time=00:00:08.86 bitrate=5917.5kbits/s speed=0.0257x elapsed=0:05:44.07    \nframe=  446 fps=1.3 q=27.0 size=    6400KiB time=00:00:08.90 bitrate=5890.9kbits/s speed=0.0258x elapsed=0:05:44.63    \nframe=  446 fps=1.3 q=27.0 size=    6400KiB time=00:00:08.90 bitrate=5890.9kbits/s speed=0.0258x elapsed=0:05:45.20    \nframe=  446 fps=1.3 q=27.0 size=    6400KiB time=00:00:08.90 bitrate=5890.9kbits/s speed=0.0257x elapsed=0:05:45.73    \nframe=  446 fps=1.3 q=27.0 size=    6400KiB time=00:00:08.90 bitrate=5890.9kbits/s speed=0.0257x elapsed=0:05:46.34    \nframe=  448 fps=1.3 q=30.0 size=    6400KiB time=00:00:08.94 bitrate=5864.5kbits/s speed=0.0258x elapsed=0:05:46.96    \nframe=  450 fps=1.3 q=17.0 size=    6400KiB time=00:00:08.98 bitrate=5838.4kbits/s speed=0.0258x elapsed=0:05:47.61    \nframe=  450 fps=1.3 q=17.0 size=    6400KiB time=00:00:08.98 bitrate=5838.4kbits/s speed=0.0258x elapsed=0:05:48.21    \nframe=  452 fps=1.3 q=33.0 size=    6400KiB time=00:00:08.98 bitrate=5838.4kbits/s speed=0.0257x elapsed=0:05:48.85    \nframe=  454 fps=1.3 q=30.0 size=    6400KiB time=00:00:09.06 bitrate=5786.8kbits/s speed=0.0259x elapsed=0:05:49.40    \nframe=  454 fps=1.3 q=30.0 size=    6400KiB time=00:00:09.06 bitrate=5786.8kbits/s speed=0.0259x elapsed=0:05:49.93    \nframe=  454 fps=1.3 q=30.0 size=    6400KiB time=00:00:09.06 bitrate=5786.8kbits/s speed=0.0258x elapsed=0:05:50.50    \nframe=  456 fps=1.3 q=33.0 size=    6400KiB time=00:00:09.10 bitrate=5761.4kbits/s speed=0.0259x elapsed=0:05:51.05    \nframe=  458 fps=1.3 q=24.0 size=    6400KiB time=00:00:09.14 bitrate=5736.2kbits/s speed=0.026x elapsed=0:05:51.61    \nframe=  458 fps=1.3 q=24.0 size=    6400KiB time=00:00:09.14 bitrate=5736.2kbits/s speed=0.026x elapsed=0:05:52.13    \nframe=  458 fps=1.3 q=24.0 size=    6400KiB time=00:00:09.14 bitrate=5736.2kbits/s speed=0.0259x elapsed=0:05:52.83    \nframe=  458 fps=1.3 q=24.0 size=    6400KiB time=00:00:09.14 bitrate=5736.2kbits/s speed=0.0259x elapsed=0:05:53.34    \nframe=  458 fps=1.3 q=24.0 size=    6400KiB time=00:00:09.14 bitrate=5736.2kbits/s speed=0.0258x elapsed=0:05:54.04    \nframe=  458 fps=1.3 q=24.0 size=    6400KiB time=00:00:09.14 bitrate=5736.2kbits/s speed=0.0258x elapsed=0:05:54.65    \nframe=  460 fps=1.3 q=31.0 size=    6400KiB time=00:00:09.18 bitrate=5711.2kbits/s speed=0.0258x elapsed=0:05:55.20    \nframe=  460 fps=1.3 q=31.0 size=    6400KiB time=00:00:09.18 bitrate=5711.2kbits/s speed=0.0258x elapsed=0:05:55.73    \nframe=  462 fps=1.3 q=27.0 size=    6400KiB time=00:00:09.22 bitrate=5686.4kbits/s speed=0.0259x elapsed=0:05:56.30    \nframe=  462 fps=1.3 q=27.0 size=    6400KiB time=00:00:09.22 bitrate=5686.4kbits/s speed=0.0258x elapsed=0:05:56.83    \nframe=  462 fps=1.3 q=27.0 size=    6400KiB time=00:00:09.22 bitrate=5686.4kbits/s speed=0.0258x elapsed=0:05:57.39    \nframe=  462 fps=1.3 q=27.0 size=    6400KiB time=00:00:09.22 bitrate=5686.4kbits/s speed=0.0258x elapsed=0:05:58.00    \nframe=  464 fps=1.3 q=30.0 size=    6400KiB time=00:00:09.26 bitrate=5661.9kbits/s speed=0.0258x elapsed=0:05:58.52    \nframe=  466 fps=1.3 q=14.0 size=    6400KiB time=00:00:09.30 bitrate=5637.5kbits/s speed=0.0259x elapsed=0:05:59.03    \nframe=  466 fps=1.3 q=14.0 size=    6400KiB time=00:00:09.30 bitrate=5637.5kbits/s speed=0.0259x elapsed=0:05:59.55    \nframe=  466 fps=1.3 q=14.0 size=    6400KiB time=00:00:09.30 bitrate=5637.5kbits/s speed=0.0258x elapsed=0:06:00.07    \nframe=  466 fps=1.3 q=14.0 size=    6400KiB time=00:00:09.30 bitrate=5637.5kbits/s speed=0.0258x elapsed=0:06:00.58    \nframe=  466 fps=1.3 q=14.0 size=    6400KiB time=00:00:09.30 bitrate=5637.5kbits/s speed=0.0258x elapsed=0:06:01.10    \nframe=  468 fps=1.3 q=32.0 size=    6400KiB time=00:00:09.34 bitrate=5613.4kbits/s speed=0.0258x elapsed=0:06:01.61    \nframe=  468 fps=1.3 q=32.0 size=    6400KiB time=00:00:09.34 bitrate=5613.4kbits/s speed=0.0258x elapsed=0:06:02.13    \nframe=  470 fps=1.3 q=30.0 size=    6400KiB time=00:00:09.38 bitrate=5589.4kbits/s speed=0.0259x elapsed=0:06:02.64    \nframe=  470 fps=1.3 q=30.0 size=    6400KiB time=00:00:09.38 bitrate=5589.4kbits/s speed=0.0258x elapsed=0:06:03.16    \nframe=  470 fps=1.3 q=30.0 size=    6400KiB time=00:00:09.38 bitrate=5589.4kbits/s speed=0.0258x elapsed=0:06:03.68    \nframe=  472 fps=1.3 q=32.0 size=    6400KiB time=00:00:09.42 bitrate=5565.7kbits/s speed=0.0259x elapsed=0:06:04.18    \nframe=  472 fps=1.3 q=32.0 size=    6400KiB time=00:00:09.42 bitrate=5565.7kbits/s speed=0.0258x elapsed=0:06:04.70    \nframe=  474 fps=1.3 q=25.0 size=    6400KiB time=00:00:09.46 bitrate=5542.2kbits/s speed=0.0259x elapsed=0:06:05.21    \nframe=  474 fps=1.3 q=25.0 size=    6400KiB time=00:00:09.46 bitrate=5542.2kbits/s speed=0.0259x elapsed=0:06:05.73    \nframe=  474 fps=1.3 q=25.0 size=    6400KiB time=00:00:09.46 bitrate=5542.2kbits/s speed=0.0258x elapsed=0:06:06.25    \nframe=  474 fps=1.3 q=25.0 size=    6400KiB time=00:00:09.46 bitrate=5542.2kbits/s speed=0.0258x elapsed=0:06:06.77    \nframe=  474 fps=1.3 q=25.0 size=    6400KiB time=00:00:09.46 bitrate=5542.2kbits/s speed=0.0258x elapsed=0:06:07.28    \nframe=  474 fps=1.3 q=25.0 size=    6400KiB time=00:00:09.46 bitrate=5542.2kbits/s speed=0.0257x elapsed=0:06:07.80    \nframe=  474 fps=1.3 q=25.0 size=    6400KiB time=00:00:09.46 bitrate=5542.2kbits/s speed=0.0257x elapsed=0:06:08.32    \nframe=  476 fps=1.3 q=33.0 size=    6400KiB time=00:00:09.50 bitrate=5518.8kbits/s speed=0.0258x elapsed=0:06:08.84    \nframe=  478 fps=1.3 q=32.0 size=    6400KiB time=00:00:09.54 bitrate=5495.7kbits/s speed=0.0258x elapsed=0:06:09.35    \nframe=  478 fps=1.3 q=32.0 size=    6400KiB time=00:00:09.54 bitrate=5495.7kbits/s speed=0.0258x elapsed=0:06:09.87    \nframe=  478 fps=1.3 q=32.0 size=    6400KiB time=00:00:09.54 bitrate=5495.7kbits/s speed=0.0258x elapsed=0:06:10.37    \nframe=  480 fps=1.3 q=34.0 size=    6400KiB time=00:00:09.58 bitrate=5472.7kbits/s speed=0.0258x elapsed=0:06:10.90    \nframe=  482 fps=1.3 q=15.0 size=    6400KiB time=00:00:09.62 bitrate=5450.0kbits/s speed=0.0259x elapsed=0:06:11.41    \nframe=  482 fps=1.3 q=15.0 size=    6400KiB time=00:00:09.62 bitrate=5450.0kbits/s speed=0.0259x elapsed=0:06:11.93    \nframe=  482 fps=1.3 q=15.0 size=    6400KiB time=00:00:09.62 bitrate=5450.0kbits/s speed=0.0258x elapsed=0:06:12.44    \nframe=  484 fps=1.3 q=34.0 size=    6400KiB time=00:00:09.66 bitrate=5427.4kbits/s speed=0.0259x elapsed=0:06:12.95    \nframe=  486 fps=1.3 q=34.0 size=    6400KiB time=00:00:09.70 bitrate=5405.0kbits/s speed=0.026x elapsed=0:06:13.47    \nframe=  486 fps=1.3 q=34.0 size=    6400KiB time=00:00:09.70 bitrate=5405.0kbits/s speed=0.0259x elapsed=0:06:13.99    \nframe=  486 fps=1.3 q=34.0 size=    6400KiB time=00:00:09.70 bitrate=5405.0kbits/s speed=0.0259x elapsed=0:06:14.51    \nframe=  488 fps=1.3 q=34.0 size=    6400KiB time=00:00:09.74 bitrate=5382.8kbits/s speed=0.026x elapsed=0:06:15.02    \nframe=  488 fps=1.3 q=34.0 size=    6400KiB time=00:00:09.74 bitrate=5382.8kbits/s speed=0.0259x elapsed=0:06:15.53    \nframe=  490 fps=1.3 q=32.0 size=    6400KiB time=00:00:09.78 bitrate=5360.8kbits/s speed=0.026x elapsed=0:06:16.04    \nframe=  490 fps=1.3 q=32.0 size=    6400KiB time=00:00:09.78 bitrate=5360.8kbits/s speed=0.026x elapsed=0:06:16.56    \nframe=  490 fps=1.3 q=32.0 size=    6400KiB time=00:00:09.78 bitrate=5360.8kbits/s speed=0.0259x elapsed=0:06:17.08    \nframe=  490 fps=1.3 q=32.0 size=    6400KiB time=00:00:09.78 bitrate=5360.8kbits/s speed=0.0259x elapsed=0:06:17.59    \nframe=  490 fps=1.3 q=32.0 size=    6400KiB time=00:00:09.78 bitrate=5360.8kbits/s speed=0.0259x elapsed=0:06:18.11    \nframe=  490 fps=1.3 q=32.0 size=    6400KiB time=00:00:09.78 bitrate=5360.8kbits/s speed=0.0258x elapsed=0:06:18.62    \nframe=  492 fps=1.3 q=34.0 size=    6400KiB time=00:00:09.82 bitrate=5339.0kbits/s speed=0.0259x elapsed=0:06:19.15    \nframe=  494 fps=1.3 q=34.0 size=    6400KiB time=00:00:09.86 bitrate=5317.3kbits/s speed=0.026x elapsed=0:06:19.66    \nframe=  494 fps=1.3 q=34.0 size=    6400KiB time=00:00:09.86 bitrate=5317.3kbits/s speed=0.0259x elapsed=0:06:20.18    \nframe=  494 fps=1.3 q=34.0 size=    6400KiB time=00:00:09.86 bitrate=5317.3kbits/s speed=0.0259x elapsed=0:06:20.69    \nframe=  496 fps=1.3 q=34.0 size=    6400KiB time=00:00:09.90 bitrate=5295.8kbits/s speed=0.026x elapsed=0:06:21.20    \nframe=  496 fps=1.3 q=34.0 size=    6400KiB time=00:00:09.90 bitrate=5295.8kbits/s speed=0.0259x elapsed=0:06:21.71    \n[out#0/matroska @ 000002a878109c40] video:9648KiB audio:0KiB subtitle:0KiB other streams:0KiB global headers:0KiB muxing overhead: 0.030791%\nframe=  500 fps=1.3 q=30.0 Lsize=    9651KiB time=00:00:09.98 bitrate=7921.8kbits/s speed=0.0261x elapsed=0:06:21.89    \n",
  "seconds": 384.74103808403015,
  "probe_out": {}
}